ArchivoNarrow-Regular.ufo
<glyph name="exclam" format="2">
  <advance width="228"/>
  <unicode hex="0021"/>
  <outline>
    <contour>
      <point x="85" y="171" type="line"/>
      <point x="147" y="171" type="line"/>
      <point x="173" y="686" type="line"/>
      <point x="60" y="686" type="line"/>
    </contour>
    <contour>
      <point x="67" y="0" type="line"/>
      <point x="167" y="0" type="line"/>
      <point x="167" y="108" type="line"/>
      <point x="67" y="108" type="line"/>
    </contour>
  </outline>
</glyph>
<glyph name="ampersand" format="2">
  <advance width="547"/>
  <unicode hex="0026"/>
  <outline>
    <contour>
      <point x="440" y="0" type="line"/>
      <point x="540" y="0" type="line"/>
      <point x="240" y="409" type="line"/>
      <point x="211" y="442"/>
      <point x="195" y="487"/>
      <point x="195" y="532" type="curve" smooth="yes"/>
      <point x="195" y="583"/>
      <point x="217" y="626"/>
      <point x="265" y="626" type="curve" smooth="yes"/>
      <point x="306" y="626"/>
      <point x="326" y="590"/>
      <point x="326" y="548" type="curve" smooth="yes"/>
      <point x="326" y="475"/>
      <point x="274" y="437"/>
      <point x="217" y="415" type="curve"/>
      <point x="253" y="355" type="line"/>
      <point x="316" y="383"/>
      <point x="404" y="441"/>
      <point x="404" y="553" type="curve" smooth="yes"/>
      <point x="404" y="650"/>
      <point x="338" y="698"/>
      <point x="269" y="698" type="curve" smooth="yes"/>
      <point x="170" y="698"/>
      <point x="114" y="620"/>
      <point x="114" y="528" type="curve" smooth="yes"/>
      <point x="114" y="476"/>
      <point x="131" y="424"/>
      <point x="167" y="377" type="curve"/>
    </contour>
    <contour>
      <point x="225" y="-13" type="curve" smooth="yes"/>
      <point x="353" y="-13"/>
      <point x="500" y="100"/>
      <point x="500" y="344" type="curve"/>
      <point x="422" y="344" type="line"/>
      <point x="422" y="146"/>
      <point x="319" y="60"/>
      <point x="233" y="60" type="curve" smooth="yes"/>
      <point x="161" y="60"/>
      <point x="121" y="113"/>
      <point x="121" y="185" type="curve" smooth="yes"/>
      <point x="121" y="254"/>
      <point x="156" y="319"/>
      <point x="224" y="343" type="curve"/>
      <point x="184" y="407" type="line"/>
      <point x="87" y="365"/>
      <point x="38" y="271"/>
      <point x="38" y="182" type="curve" smooth="yes"/>
      <point x="38" y="67"/>
      <point x="111" y="-13"/>
    </contour>
  </outline>
</glyph>
<glyph name="quotesingle" format="2">
  <advance width="157"/>
  <unicode hex="0027"/>
  <outline>
    <contour>
      <point x="57" y="407" type="line"/>
      <point x="96" y="407" type="line"/>
      <point x="117" y="539" type="line"/>
      <point x="117" y="686" type="line"/>
      <point x="35" y="686" type="line"/>
      <point x="35" y="539" type="line"/>
    </contour>
  </outline>
</glyph>
<glyph name="A" format="2">
  <advance width="547"/>
  <unicode hex="0041"/>
  <anchor x="274" y="0" name="bottom"/>
  <anchor x="548" y="0" name="ogonek"/>
  <anchor x="273" y="686" name="top"/>
  <outline>
    <contour>
      <point x="-1" y="0" type="line"/>
      <point x="87" y="0" type="line"/>
      <point x="134" y="153" type="line"/>
      <point x="406" y="153" type="line"/>
      <point x="453" y="0" type="line"/>
      <point x="548" y="0" type="line"/>
      <point x="330" y="686" type="line"/>
      <point x="217" y="686" type="line"/>
    </contour>
    <contour>
      <point x="158" y="233" type="line"/>
      <point x="252" y="538" type="line"/>
      <point x="259" y="560"/>
      <point x="268" y="614"/>
      <point x="268" y="614" type="curve"/>
      <point x="272" y="614" type="line"/>
      <point x="272" y="614"/>
      <point x="281" y="561"/>
      <point x="288" y="538" type="curve" smooth="yes"/>
      <point x="381" y="233" type="line"/>
    </contour>
  </outline>
</glyph>
<glyph name="D" format="2">
  <advance width="592"/>
  <unicode hex="0044"/>
  <anchor x="296" y="0" name="bottom"/>
  <anchor x="296" y="343" name="center"/>
  <anchor x="276" y="686" name="top"/>
  <outline>
    <contour>
      <point x="70" y="0" type="line"/>
      <point x="283" y="0" type="line"/>
      <point x="445" y="0"/>
      <point x="543" y="118"/>
      <point x="543" y="353" type="curve" smooth="yes"/>
      <point x="543" y="574"/>
      <point x="445" y="686"/>
      <point x="283" y="686" type="curve" smooth="yes"/>
      <point x="70" y="686" type="line"/>
    </contour>
    <contour>
      <point x="158" y="80" type="line"/>
      <point x="158" y="606" type="line"/>
      <point x="275" y="606" type="line"/>
      <point x="383" y="606"/>
      <point x="451" y="531"/>
      <point x="451" y="378" type="curve" smooth="yes"/>
      <point x="451" y="328" type="line" smooth="yes"/>
      <point x="451" y="161"/>
      <point x="383" y="80"/>
      <point x="275" y="80" type="curve" smooth="yes"/>
    </contour>
  </outline>
</glyph>
<glyph name="E" format="2">
  <advance width="547"/>
  <unicode hex="0045"/>
  <anchor x="291" y="0" name="bottom"/>
  <anchor x="499" y="0" name="ogonek"/>
  <anchor x="283" y="686" name="top"/>
  <outline>
    <contour>
      <point x="70" y="0" type="line"/>
      <point x="499" y="0" type="line"/>
      <point x="499" y="80" type="line"/>
      <point x="158" y="80" type="line"/>
      <point x="158" y="311" type="line"/>
      <point x="449" y="311" type="line"/>
      <point x="449" y="391" type="line"/>
      <point x="158" y="391" type="line"/>
      <point x="158" y="606" type="line"/>
      <point x="493" y="606" type="line"/>
      <point x="493" y="686" type="line"/>
      <point x="70" y="686" type="line"/>
    </contour>
  </outline>
</glyph>
<glyph name="F" format="2">
  <advance width="501"/>
  <unicode hex="0046"/>
  <outline>
    <contour>
      <point x="70" y="0" type="line"/>
      <point x="158" y="0" type="line"/>
      <point x="158" y="304" type="line"/>
      <point x="430" y="304" type="line"/>
      <point x="430" y="384" type="line"/>
      <point x="158" y="384" type="line"/>
      <point x="158" y="606" type="line"/>
      <point x="466" y="606" type="line"/>
      <point x="466" y="686" type="line"/>
      <point x="70" y="686" type="line"/>
    </contour>
  </outline>
</glyph>
<glyph name="H" format="2">
  <advance width="592"/>
  <unicode hex="0048"/>
  <anchor x="296" y="0" name="bottom"/>
  <anchor x="296" y="540" name="center"/>
  <anchor x="296" y="686" name="top"/>
  <anchor x="70" y="686" name="topleft"/>
  <outline>
    <contour>
      <point x="70" y="0" type="line"/>
      <point x="158" y="0" type="line"/>
      <point x="158" y="311" type="line"/>
      <point x="434" y="311" type="line"/>
      <point x="434" y="0" type="line"/>
      <point x="522" y="0" type="line"/>
      <point x="522" y="686" type="line"/>
      <point x="434" y="686" type="line"/>
      <point x="434" y="391" type="line"/>
      <point x="158" y="391" type="line"/>
      <point x="158" y="686" type="line"/>
      <point x="70" y="686" type="line"/>
    </contour>
  </outline>
</glyph>
<glyph name="I" format="2">
  <advance width="228"/>
  <unicode hex="0049"/>
  <anchor x="114" y="0" name="bottom"/>
  <anchor x="148" y="0" name="ogonek"/>
  <anchor x="114" y="686" name="top"/>
  <anchor x="0" y="686" name="topleft"/>
  <outline>
    <contour>
      <point x="70" y="0" type="line"/>
      <point x="158" y="0" type="line"/>
      <point x="158" y="686" type="line"/>
      <point x="70" y="686" type="line"/>
    </contour>
  </outline>
</glyph>
<glyph name="K" format="2">
  <advance width="547"/>
  <unicode hex="004B"/>
  <anchor x="273" y="0" name="bottom"/>
  <anchor x="273" y="686" name="top"/>
  <outline>
    <contour>
      <point x="70" y="0" type="line"/>
      <point x="158" y="0" type="line"/>
      <point x="158" y="213" type="line"/>
      <point x="268" y="335" type="line"/>
      <point x="435" y="0" type="line"/>
      <point x="535" y="0" type="line"/>
      <point x="322" y="409" type="line"/>
      <point x="528" y="686" type="line"/>
      <point x="430" y="686" type="line"/>
      <point x="158" y="323" type="line"/>
      <point x="158" y="686" type="line"/>
      <point x="70" y="686" type="line"/>
    </contour>
  </outline>
</glyph>
<glyph name="L" format="2">
  <advance width="456"/>
  <unicode hex="004C"/>
  <anchor x="228" y="0" name="bottom"/>
  <anchor x="345" y="350" name="center"/>
  <anchor x="115" y="686" name="top"/>
  <anchor x="258" y="526" name="topright"/>
  <outline>
    <contour>
      <point x="70" y="0" type="line"/>
      <point x="438" y="0" type="line"/>
      <point x="438" y="80" type="line"/>
      <point x="158" y="80" type="line"/>
      <point x="158" y="686" type="line"/>
      <point x="70" y="686" type="line"/>
    </contour>
  </outline>
</glyph>
<glyph name="O" format="2">
  <advance width="638"/>
  <unicode hex="004F"/>
  <anchor x="319" y="0" name="bottom"/>
  <anchor x="319" y="343" name="center"/>
  <anchor x="354" y="0" name="ogonek"/>
  <anchor x="319" y="686" name="top"/>
  <anchor x="20" y="686" name="topleft"/>
  <anchor x="398" y="686" name="topright"/>
  <outline>
    <contour>
      <point x="319" y="-12" type="curve" smooth="yes"/>
      <point x="487" y="-12"/>
      <point x="589" y="105"/>
      <point x="589" y="343" type="curve" smooth="yes"/>
      <point x="589" y="581"/>
      <point x="487" y="698"/>
      <point x="319" y="698" type="curve" smooth="yes"/>
      <point x="151" y="698"/>
      <point x="49" y="581"/>
      <point x="49" y="343" type="curve" smooth="yes"/>
      <point x="49" y="105"/>
      <point x="151" y="-12"/>
    </contour>
    <contour>
      <point x="319" y="69" type="curve" smooth="yes"/>
      <point x="209" y="69"/>
      <point x="141" y="151"/>
      <point x="141" y="318" type="curve" smooth="yes"/>
      <point x="141" y="368" type="line"/>
      <point x="141" y="535"/>
      <point x="209" y="617"/>
      <point x="319" y="617" type="curve" smooth="yes"/>
      <point x="429" y="617"/>
      <point x="497" y="535"/>
      <point x="497" y="368" type="curve" smooth="yes"/>
      <point x="497" y="318" type="line" smooth="yes"/>
      <point x="497" y="151"/>
      <point x="429" y="69"/>
    </contour>
  </outline>
</glyph>
<glyph name="P" format="2">
  <advance width="547"/>
  <unicode hex="0050"/>
  <outline>
    <contour>
      <point x="70" y="0" type="line"/>
      <point x="158" y="0" type="line"/>
      <point x="158" y="283" type="line"/>
      <point x="315" y="283" type="line"/>
      <point x="442" y="283"/>
      <point x="520" y="365"/>
      <point x="520" y="486" type="curve" smooth="yes"/>
      <point x="520" y="605"/>
      <point x="450" y="686"/>
      <point x="315" y="686" type="curve" smooth="yes"/>
      <point x="70" y="686" type="line"/>
    </contour>
    <contour>
      <point x="158" y="363" type="line"/>
      <point x="158" y="606" type="line"/>
      <point x="312" y="606" type="line"/>
      <point x="387" y="606"/>
      <point x="428" y="560"/>
      <point x="428" y="486" type="curve" smooth="yes"/>
      <point x="428" y="412"/>
      <point x="382" y="363"/>
      <point x="312" y="363" type="curve" smooth="yes"/>
    </contour>
  </outline>
</glyph>
<glyph name="R" format="2">
  <advance width="592"/>
  <unicode hex="0052"/>
  <anchor x="296" y="0" name="bottom"/>
  <anchor x="289" y="686" name="top"/>
  <outline>
    <contour>
      <point x="70" y="0" type="line"/>
      <point x="158" y="0" type="line"/>
      <point x="158" y="303" type="line"/>
      <point x="342" y="303" type="line"/>
      <point x="469" y="0" type="line"/>
      <point x="567" y="0" type="line"/>
      <point x="429" y="319" type="line"/>
      <point x="506" y="345"/>
      <point x="551" y="411"/>
      <point x="551" y="496" type="curve" smooth="yes"/>
      <point x="551" y="609"/>
      <point x="481" y="686"/>
      <point x="346" y="686" type="curve" smooth="yes"/>
      <point x="70" y="686" type="line"/>
    </contour>
    <contour>
      <point x="158" y="383" type="line"/>
      <point x="158" y="606" type="line"/>
      <point x="343" y="606" type="line" smooth="yes"/>
      <point x="418" y="606"/>
      <point x="459" y="564"/>
      <point x="459" y="496" type="curve" smooth="yes"/>
      <point x="459" y="428"/>
      <point x="413" y="383"/>
      <point x="343" y="383" type="curve" smooth="yes"/>
    </contour>
  </outline>
</glyph>
<glyph name="T" format="2">
  <advance width="501"/>
  <unicode hex="0054"/>
  <anchor x="250" y="0" name="bottom"/>
  <anchor x="250" y="343" name="center"/>
  <anchor x="250" y="686" name="top"/>
  <outline>
    <contour>
      <point x="206" y="0" type="line"/>
      <point x="294" y="0" type="line"/>
      <point x="294" y="606" type="line"/>
      <point x="481" y="606" type="line"/>
      <point x="481" y="686" type="line"/>
      <point x="19" y="686" type="line"/>
      <point x="19" y="606" type="line"/>
      <point x="206" y="606" type="line"/>
    </contour>
  </outline>
</glyph>
<glyph name="U" format="2">
  <advance width="592"/>
  <unicode hex="0055"/>
  <anchor x="296" y="0" name="bottom"/>
  <anchor x="398" y="5" name="ogonek"/>
  <anchor x="296" y="686" name="top"/>
  <anchor x="444" y="686" name="topright"/>
  <outline>
    <contour>
      <point x="296" y="-12" type="curve" smooth="yes"/>
      <point x="437" y="-12"/>
      <point x="522" y="69"/>
      <point x="522" y="223" type="curve" smooth="yes"/>
      <point x="522" y="686" type="line"/>
      <point x="434" y="686" type="line"/>
      <point x="434" y="218" type="line" smooth="yes"/>
      <point x="434" y="121"/>
      <point x="382" y="69"/>
      <point x="296" y="69" type="curve" smooth="yes"/>
      <point x="210" y="69"/>
      <point x="158" y="121"/>
      <point x="158" y="218" type="curve" smooth="yes"/>
      <point x="158" y="686" type="line"/>
      <point x="70" y="686" type="line"/>
      <point x="70" y="223" type="line"/>
      <point x="70" y="69"/>
      <point x="155" y="-12"/>
    </contour>
  </outline>
</glyph>
<glyph name="grave" format="2">
  <advance width="273"/>
  <unicode hex="0060"/>
  <outline>
    <contour>
      <point x="135" y="591" type="line"/>
      <point x="204" y="591" type="line"/>
      <point x="118" y="723" type="line"/>
      <point x="28" y="723" type="line"/>
      <point x="27" y="720" type="line"/>
    </contour>
  </outline>
</glyph>
<glyph name="k" format="2">
  <advance width="410"/>
  <unicode hex="006B"/>
  <anchor x="205" y="0" name="bottom"/>
  <outline>
    <contour>
      <point x="60" y="0" type="line"/>
      <point x="142" y="0" type="line"/>
      <point x="142" y="179" type="line"/>
      <point x="198" y="240" type="line"/>
      <point x="318" y="0" type="line"/>
      <point x="411" y="0" type="line"/>
      <point x="248" y="310" type="line"/>
      <point x="403" y="526" type="line"/>
      <point x="312" y="526" type="line"/>
      <point x="142" y="282" type="line"/>
      <point x="142" y="723" type="line"/>
      <point x="60" y="723" type="line"/>
    </contour>
  </outline>
</glyph>
<glyph name="l" format="2">
  <advance width="182"/>
  <unicode hex="006C"/>
  <anchor x="91" y="0" name="bottom"/>
  <anchor x="227" y="362" name="center"/>
  <anchor x="92" y="700" name="top"/>
  <anchor x="162" y="526" name="topright"/>
  <outline>
    <contour>
      <point x="50" y="0" type="line"/>
      <point x="132" y="0" type="line"/>
      <point x="132" y="723" type="line"/>
      <point x="50" y="723" type="line"/>
    </contour>
  </outline>
</glyph>
<glyph name="v" format="2">
  <advance width="410"/>
  <unicode hex="0076"/>
  <outline>
    <contour>
      <point x="161" y="0" type="line"/>
      <point x="250" y="0" type="line"/>
      <point x="401" y="526" type="line"/>
      <point x="318" y="526" type="line"/>
      <point x="247" y="262" type="line"/>
      <point x="235" y="217"/>
      <point x="223" y="171"/>
      <point x="211" y="126" type="curve"/>
      <point x="207" y="126" type="line"/>
      <point x="195" y="170"/>
      <point x="183" y="215"/>
      <point x="171" y="259" type="curve"/>
      <point x="100" y="526" type="line"/>
      <point x="10" y="526" type="line"/>
    </contour>
  </outline>
</glyph>
<glyph name="z" format="2">
  <advance width="410"/>
  <unicode hex="007A"/>
  <anchor x="205" y="526" name="top"/>
  <outline>
    <contour>
      <point x="26" y="0" type="line"/>
      <point x="383" y="0" type="line"/>
      <point x="383" y="73" type="line"/>
      <point x="138" y="73" type="line"/>
      <point x="370" y="488" type="line"/>
      <point x="370" y="526" type="line"/>
      <point x="42" y="526" type="line"/>
      <point x="42" y="453" type="line"/>
      <point x="257" y="453" type="line"/>
      <point x="26" y="39" type="line"/>
    </contour>
  </outline>
</glyph>
<glyph name="exclamdown" format="2">
  <advance width="273"/>
  <unicode hex="00A1"/>
  <outline>
    <contour>
      <point x="100" y="-160" type="line"/>
      <point x="213" y="-160" type="line"/>
      <point x="187" y="355" type="line"/>
      <point x="125" y="355" type="line"/>
    </contour>
    <contour>
      <point x="107" y="418" type="line"/>
      <point x="207" y="418" type="line"/>
      <point x="207" y="526" type="line"/>
      <point x="107" y="526" type="line"/>
    </contour>
  </outline>
</glyph>
<glyph name="softhyphen" format="2">
  <advance width="273"/>
  <unicode hex="00AD"/>
  <outline>
    <contour>
      <point x="10" y="221" type="line"/>
      <point x="262" y="221" type="line"/>
      <point x="262" y="319" type="line"/>
      <point x="10" y="319" type="line"/>
    </contour>
  </outline>
</glyph>
<glyph name="macron" format="2">
  <advance width="273"/>
  <unicode hex="00AF"/>
  <outline>
    <contour>
      <point x="12" y="600" type="line"/>
      <point x="262" y="600" type="line"/>
      <point x="262" y="672" type="line"/>
      <point x="12" y="672" type="line"/>
    </contour>
  </outline>
</glyph>
<glyph name="twosuperior" format="2">
  <advance width="273"/>
  <unicode hex="00B2"/>
  <outline>
    <contour>
      <point x="35" y="435" type="line"/>
      <point x="247" y="435" type="line"/>
      <point x="247" y="491" type="line"/>
      <point x="114" y="491" type="line"/>
      <point x="121" y="513"/>
      <point x="142" y="533"/>
      <point x="165" y="556" type="curve" smooth="yes"/>
      <point x="201" y="592"/>
      <point x="244" y="632"/>
      <point x="244" y="690" type="curve" smooth="yes"/>
      <point x="244" y="768"/>
      <point x="195" y="799"/>
      <point x="141" y="799" type="curve" smooth="yes"/>
      <point x="82" y="799"/>
      <point x="34" y="762"/>
      <point x="34" y="681" type="curve" smooth="yes"/>
      <point x="34" y="667"/>
      <point x="38" y="653"/>
      <point x="38" y="653" type="curve"/>
      <point x="98" y="653" type="line"/>
      <point x="97" y="682" type="line" smooth="yes"/>
      <point x="96" y="710"/>
      <point x="107" y="741"/>
      <point x="139" y="741" type="curve" smooth="yes"/>
      <point x="173" y="741"/>
      <point x="182" y="712"/>
      <point x="182" y="690" type="curve" smooth="yes"/>
      <point x="182" y="653"/>
      <point x="150" y="622"/>
      <point x="116" y="588" type="curve" smooth="yes"/>
      <point x="77" y="549"/>
      <point x="35" y="508"/>
      <point x="35" y="451" type="curve" smooth="yes"/>
    </contour>
  </outline>
</glyph>
<glyph name="threesuperior" format="2">
  <advance width="273"/>
  <unicode hex="00B3"/>
  <outline>
    <contour>
      <point x="140" y="428" type="curve" smooth="yes"/>
      <point x="204" y="428"/>
      <point x="249" y="464"/>
      <point x="249" y="535" type="curve" smooth="yes"/>
      <point x="249" y="572"/>
      <point x="228" y="605"/>
      <point x="200" y="621" type="curve"/>
      <point x="227" y="640"/>
      <point x="243" y="666"/>
      <point x="243" y="702" type="curve" smooth="yes"/>
      <point x="243" y="768"/>
      <point x="201" y="799"/>
      <point x="138" y="799" type="curve" smooth="yes"/>
      <point x="76" y="799"/>
      <point x="34" y="760"/>
      <point x="34" y="702" type="curve" smooth="yes"/>
      <point x="34" y="677" type="line"/>
      <point x="98" y="677" type="line"/>
      <point x="98" y="697" type="line" smooth="yes"/>
      <point x="98" y="724"/>
      <point x="114" y="742"/>
      <point x="139" y="742" type="curve" smooth="yes"/>
      <point x="160" y="742"/>
      <point x="179" y="732"/>
      <point x="179" y="699" type="curve" smooth="yes"/>
      <point x="179" y="664"/>
      <point x="159" y="643"/>
      <point x="136" y="643" type="curve" smooth="yes"/>
      <point x="110" y="643" type="line"/>
      <point x="110" y="590" type="line"/>
      <point x="135" y="590" type="line" smooth="yes"/>
      <point x="161" y="590"/>
      <point x="185" y="577"/>
      <point x="185" y="538" type="curve" smooth="yes"/>
      <point x="185" y="498"/>
      <point x="165" y="485"/>
      <point x="136" y="485" type="curve" smooth="yes"/>
      <point x="109" y="485"/>
      <point x="92" y="504"/>
      <point x="92" y="534" type="curve" smooth="yes"/>
      <point x="92" y="547" type="line"/>
      <point x="27" y="547" type="line"/>
      <point x="27" y="536" type="line" smooth="yes"/>
      <point x="27" y="464"/>
      <point x="65" y="428"/>
    </contour>
  </outline>
</glyph>
<glyph name="acute" format="2">
  <advance width="273"/>
  <unicode hex="00B4"/>
  <outline>
    <contour>
      <point x="68" y="591" type="line"/>
      <point x="137" y="591" type="line"/>
      <point x="245" y="720" type="line"/>
      <point x="244" y="723" type="line"/>
      <point x="154" y="723" type="line"/>
    </contour>
  </outline>
</glyph>
<glyph name="onesuperior" format="2">
  <advance width="273"/>
  <unicode hex="00B9"/>
  <outline>
    <contour>
      <point x="42" y="435" type="line"/>
      <point x="246" y="435" type="line"/>
      <point x="246" y="491" type="line"/>
      <point x="179" y="491" type="line"/>
      <point x="179" y="786" type="line"/>
      <point x="149" y="786" type="line"/>
      <point x="119" y="766"/>
      <point x="72" y="751"/>
      <point x="41" y="747" type="curve"/>
      <point x="41" y="709" type="line"/>
      <point x="116" y="709" type="line"/>
      <point x="116" y="491" type="line"/>
      <point x="42" y="491" type="line"/>
    </contour>
  </outline>
</glyph>
<glyph name="Oslash" format="2">
  <advance width="638"/>
  <unicode hex="00D8"/>
  <anchor x="319" y="0" name="bottom"/>
  <anchor x="319" y="686" name="top"/>
  <outline>
    <contour>
      <point x="50" y="-37" type="line"/>
      <point x="114" y="-37" type="line"/>
      <point x="589" y="723" type="line"/>
      <point x="525" y="723" type="line"/>
    </contour>
    <component base="O"/>
  </outline>
</glyph>
<glyph name="dcroat" format="2">
  <advance width="456"/>
  <unicode hex="0111"/>
  <outline>
    <contour>
      <point x="203" y="583" type="line"/>
      <point x="454" y="583" type="line"/>
      <point x="454" y="651" type="line"/>
      <point x="203" y="651" type="line"/>
    </contour>
    <component base="d"/>
  </outline>
</glyph>
<glyph name="hbar" format="2">
  <advance width="456"/>
  <unicode hex="0127"/>
  <outline>
    <contour>
      <point x="0" y="596" type="line"/>
      <point x="250" y="596" type="line"/>
      <point x="250" y="658" type="line"/>
      <point x="0" y="658" type="line"/>
    </contour>
    <component base="h"/>
  </outline>
</glyph>
<glyph name="idotless" format="2">
  <advance width="228"/>
  <unicode hex="0131"/>
  <anchor x="114" y="0" name="bottom"/>
  <anchor x="153" y="5" name="ogonek"/>
  <anchor x="114" y="526" name="top"/>
  <outline>
    <contour>
      <point x="73" y="0" type="line"/>
      <point x="155" y="0" type="line"/>
      <point x="155" y="526" type="line"/>
      <point x="73" y="526" type="line"/>
    </contour>
  </outline>
</glyph>
<glyph name="Lslash" format="2">
  <advance width="456"/>
  <unicode hex="0141"/>
  <outline>
    <contour>
      <point x="70" y="0" type="line"/>
      <point x="438" y="0" type="line"/>
      <point x="438" y="80" type="line"/>
      <point x="158" y="80" type="line"/>
      <point x="158" y="308" type="line"/>
      <point x="335" y="464" type="line"/>
      <point x="335" y="537" type="line"/>
      <point x="158" y="380" type="line"/>
      <point x="158" y="686" type="line"/>
      <point x="70" y="686" type="line"/>
      <point x="70" y="302" type="line"/>
      <point x="0" y="240" type="line"/>
      <point x="0" y="169" type="line"/>
      <point x="70" y="230" type="line"/>
    </contour>
  </outline>
</glyph>
<glyph name="lslash" format="2">
  <advance width="182"/>
  <unicode hex="0142"/>
  <outline>
    <contour>
      <point x="-21" y="184" type="line"/>
      <point x="219" y="396" type="line"/>
      <point x="219" y="468" type="line"/>
      <point x="-21" y="255" type="line"/>
    </contour>
    <component base="l"/>
  </outline>
</glyph>
<glyph name="OE" format="2">
  <advance width="820"/>
  <unicode hex="0152"/>
  <anchor x="410" y="686" name="top"/>
  <outline>
    <contour>
      <point x="273" y="-12" type="curve" smooth="yes"/>
      <point x="337" y="-12"/>
      <point x="388" y="14"/>
      <point x="425" y="68" type="curve"/>
      <point x="425" y="0" type="line"/>
      <point x="784" y="0" type="line"/>
      <point x="784" y="80" type="line"/>
      <point x="513" y="80" type="line"/>
      <point x="513" y="311" type="line"/>
      <point x="733" y="311" type="line"/>
      <point x="733" y="391" type="line"/>
      <point x="513" y="391" type="line"/>
      <point x="513" y="606" type="line"/>
      <point x="778" y="606" type="line"/>
      <point x="778" y="686" type="line"/>
      <point x="425" y="686" type="line"/>
      <point x="425" y="618" type="line"/>
      <point x="388" y="671"/>
      <point x="337" y="698"/>
      <point x="273" y="698" type="curve" smooth="yes"/>
      <point x="132" y="698"/>
      <point x="49" y="581"/>
      <point x="49" y="343" type="curve" smooth="yes"/>
      <point x="49" y="105"/>
      <point x="132" y="-12"/>
    </contour>
    <contour>
      <point x="283" y="69" type="curve" smooth="yes"/>
      <point x="195" y="69"/>
      <point x="141" y="151"/>
      <point x="141" y="318" type="curve" smooth="yes"/>
      <point x="141" y="368" type="line"/>
      <point x="141" y="535"/>
      <point x="195" y="617"/>
      <point x="283" y="617" type="curve" smooth="yes"/>
      <point x="371" y="617"/>
      <point x="425" y="535"/>
      <point x="425" y="368" type="curve" smooth="yes"/>
      <point x="425" y="318" type="line" smooth="yes"/>
      <point x="425" y="151"/>
      <point x="371" y="69"/>
    </contour>
  </outline>
</glyph>
<glyph name="Tbar" format="2">
  <advance width="501"/>
  <unicode hex="0166"/>
  <outline>
    <contour>
      <point x="206" y="0" type="line"/>
      <point x="294" y="0" type="line"/>
      <point x="294" y="320" type="line"/>
      <point x="438" y="320" type="line"/>
      <point x="438" y="393" type="line"/>
      <point x="294" y="393" type="line"/>
      <point x="294" y="606" type="line"/>
      <point x="481" y="606" type="line"/>
      <point x="481" y="686" type="line"/>
      <point x="19" y="686" type="line"/>
      <point x="19" y="606" type="line"/>
      <point x="206" y="606" type="line"/>
      <point x="206" y="393" type="line"/>
      <point x="62" y="393" type="line"/>
      <point x="62" y="320" type="line"/>
      <point x="206" y="320" type="line"/>
    </contour>
  </outline>
</glyph>
<glyph name="Schwa" format="2">
  <advance width="600"/>
  <unicode hex="018F"/>
  <outline>
    <contour>
      <point x="294" y="-12" type="curve" smooth="yes"/>
      <point x="468" y="-12"/>
      <point x="549" y="101"/>
      <point x="549" y="342" type="curve" smooth="yes"/>
      <point x="549" y="585"/>
      <point x="467" y="698"/>
      <point x="293" y="698" type="curve" smooth="yes"/>
      <point x="146" y="698"/>
      <point x="51" y="601"/>
      <point x="51" y="451" type="curve"/>
      <point x="137" y="451" type="line"/>
      <point x="137" y="552"/>
      <point x="197" y="617"/>
      <point x="290" y="617" type="curve" smooth="yes"/>
      <point x="403" y="617"/>
      <point x="457" y="538"/>
      <point x="458" y="368" type="curve"/>
      <point x="51" y="368" type="line"/>
      <point x="51" y="316" type="line" smooth="yes"/>
      <point x="51" y="92"/>
      <point x="128" y="-12"/>
    </contour>
    <contour>
      <point x="294" y="69" type="curve" smooth="yes"/>
      <point x="188" y="69"/>
      <point x="142" y="148"/>
      <point x="142" y="290" type="curve"/>
      <point x="457" y="290" type="line"/>
      <point x="452" y="139"/>
      <point x="395" y="69"/>
    </contour>
  </outline>
</glyph>
<glyph name="Fhook" format="2">
  <advance width="501"/>
  <unicode hex="0191"/>
  <outline>
    <contour>
      <point x="48" y="-182" type="curve" smooth="yes"/>
      <point x="128" y="-182"/>
      <point x="158" y="-121"/>
      <point x="158" y="-61" type="curve" smooth="yes"/>
      <point x="158" y="304" type="line"/>
      <point x="430" y="304" type="line"/>
      <point x="430" y="384" type="line"/>
      <point x="158" y="384" type="line"/>
      <point x="158" y="606" type="line"/>
      <point x="466" y="606" type="line"/>
      <point x="466" y="686" type="line"/>
      <point x="70" y="686" type="line"/>
      <point x="70" y="-65" type="line" smooth="yes"/>
      <point x="70" y="-96"/>
      <point x="54" y="-113"/>
      <point x="23" y="-113" type="curve" smooth="yes"/>
      <point x="-21" y="-113" type="line"/>
      <point x="-21" y="-170" type="line"/>
      <point x="-4" y="-176"/>
      <point x="24" y="-182"/>
    </contour>
  </outline>
</glyph>
<glyph name="Nhookleft" format="2">
  <advance width="592"/>
  <unicode hex="019D"/>
  <outline>
    <contour>
      <point x="48" y="-182" type="curve" smooth="yes"/>
      <point x="121" y="-182"/>
      <point x="149" y="-121"/>
      <point x="149" y="-61" type="curve" smooth="yes"/>
      <point x="149" y="437" type="line" smooth="yes"/>
      <point x="149" y="457"/>
      <point x="147" y="501"/>
      <point x="145" y="528" type="curve"/>
      <point x="148" y="529" type="line"/>
      <point x="160" y="502"/>
      <point x="180" y="458"/>
      <point x="192" y="437" type="curve" smooth="yes"/>
      <point x="449" y="0" type="line"/>
      <point x="522" y="0" type="line"/>
      <point x="522" y="686" type="line"/>
      <point x="443" y="686" type="line"/>
      <point x="443" y="255" type="line" smooth="yes"/>
      <point x="443" y="239"/>
      <point x="445" y="194"/>
      <point x="446" y="164" type="curve"/>
      <point x="443" y="163" type="line"/>
      <point x="431" y="191"/>
      <point x="412" y="236"/>
      <point x="401" y="255" type="curve" smooth="yes"/>
      <point x="146" y="686" type="line"/>
      <point x="70" y="686" type="line"/>
      <point x="70" y="-65" type="line" smooth="yes"/>
      <point x="70" y="-96"/>
      <point x="54" y="-113"/>
      <point x="23" y="-113" type="curve" smooth="yes"/>
      <point x="-21" y="-113" type="line"/>
      <point x="-21" y="-170" type="line"/>
      <point x="-4" y="-176"/>
      <point x="24" y="-182"/>
    </contour>
  </outline>
</glyph>
<glyph name="LJ" format="2">
  <advance width="816"/>
  <unicode hex="01C7"/>
  <outline>
    <contour>
      <point x="70" y="0" type="line"/>
      <point x="388" y="0" type="line"/>
      <point x="388" y="80" type="line"/>
      <point x="158" y="80" type="line"/>
      <point x="158" y="686" type="line"/>
      <point x="70" y="686" type="line"/>
    </contour>
    <component base="J" xOffset="406"/>
  </outline>
</glyph>
<glyph name="jdotless" format="2">
  <advance width="182"/>
  <unicode hex="0237"/>
  <anchor x="91" y="-183" name="bottom"/>
  <anchor x="91" y="526" name="top"/>
  <outline>
    <contour>
      <point x="28" y="-182" type="curve" smooth="yes"/>
      <point x="108" y="-182"/>
      <point x="132" y="-121"/>
      <point x="132" y="-61" type="curve" smooth="yes"/>
      <point x="132" y="526" type="line"/>
      <point x="50" y="526" type="line"/>
      <point x="50" y="-65" type="line"/>
      <point x="50" y="-96"/>
      <point x="34" y="-113"/>
      <point x="3" y="-113" type="curve" smooth="yes"/>
      <point x="-41" y="-113" type="line"/>
      <point x="-41" y="-170" type="line"/>
      <point x="-24" y="-176"/>
      <point x="4" y="-182"/>
    </contour>
  </outline>
</glyph>
<glyph name="nhookleft" format="2">
  <advance width="456"/>
  <unicode hex="0272"/>
  <outline>
    <contour>
      <point x="38" y="-182" type="curve" smooth="yes"/>
      <point x="118" y="-182"/>
      <point x="142" y="-121"/>
      <point x="142" y="-61" type="curve" smooth="yes"/>
      <point x="142" y="321" type="line" smooth="yes"/>
      <point x="142" y="412"/>
      <point x="188" y="465"/>
      <point x="240" y="465" type="curve" smooth="yes"/>
      <point x="284" y="465"/>
      <point x="314" y="446"/>
      <point x="314" y="373" type="curve" smooth="yes"/>
      <point x="314" y="0" type="line"/>
      <point x="396" y="0" type="line"/>
      <point x="396" y="379" type="line" smooth="yes"/>
      <point x="396" y="496"/>
      <point x="345" y="538"/>
      <point x="266" y="538" type="curve" smooth="yes"/>
      <point x="214" y="538"/>
      <point x="168" y="517"/>
      <point x="139" y="465" type="curve"/>
      <point x="133" y="465" type="line"/>
      <point x="122" y="526" type="line"/>
      <point x="60" y="526" type="line"/>
      <point x="60" y="-65" type="line" smooth="yes"/>
      <point x="60" y="-96"/>
      <point x="44" y="-113"/>
      <point x="13" y="-113" type="curve" smooth="yes"/>
      <point x="-31" y="-113" type="line"/>
      <point x="-31" y="-170" type="line"/>
      <point x="-14" y="-176"/>
      <point x="14" y="-182"/>
    </contour>
  </outline>
</glyph>
<glyph name="apostrophemod" format="2">
  <advance width="100"/>
  <unicode hex="02BC"/>
  <outline>
    <contour>
      <point x="0" y="526" type="line"/>
      <point x="52" y="526" type="line"/>
      <point x="100" y="641" type="line"/>
      <point x="100" y="723" type="line"/>
      <point x="0" y="723" type="line"/>
      <point x="0" y="632" type="line"/>
      <point x="40" y="632" type="line"/>
    </contour>
  </outline>
</glyph>
<glyph name="uni02C9" format="2">
  <advance width="273"/>
  <unicode hex="02C9"/>
  <outline>
    <contour>
      <point x="12" y="600" type="line"/>
      <point x="262" y="600" type="line"/>
      <point x="262" y="672" type="line"/>
      <point x="12" y="672" type="line"/>
    </contour>
  </outline>
</glyph>
<glyph name="dotaccent" format="2">
  <advance width="273"/>
  <unicode hex="02D9"/>
  <outline>
    <contour>
      <point x="93" y="628" type="line"/>
      <point x="180" y="628" type="line"/>
      <point x="180" y="723" type="line"/>
      <point x="93" y="723" type="line"/>
    </contour>
  </outline>
</glyph>
<glyph name="ogonek" format="2">
  <advance width="273"/>
  <unicode hex="02DB"/>
  <outline>
    <contour>
      <point x="166" y="-182" type="curve" smooth="yes"/>
      <point x="186" y="-182"/>
      <point x="206" y="-177"/>
      <point x="227" y="-168" type="curve"/>
      <point x="227" y="-117" type="line"/>
      <point x="195" y="-117" type="line" smooth="yes"/>
      <point x="165" y="-117"/>
      <point x="150" y="-95"/>
      <point x="150" y="-67" type="curve" smooth="yes"/>
      <point x="150" y="-43"/>
      <point x="160" y="-15"/>
      <point x="180" y="8" type="curve"/>
      <point x="180" y="12" type="line"/>
      <point x="120" y="12" type="line"/>
      <point x="88" y="-22"/>
      <point x="72" y="-61"/>
      <point x="72" y="-96" type="curve" smooth="yes"/>
      <point x="72" y="-144"/>
      <point x="103" y="-182"/>
    </contour>
  </outline>
</glyph>
<glyph name="gravecomb" format="2">
  <unicode hex="0300"/>
  <anchor x="124" y="526" name="_top"/>
  <anchor x="124" y="723" name="top"/>
  <outline>
    <contour>
      <point x="108" y="591" type="line"/>
      <point x="177" y="591" type="line"/>
      <point x="91" y="723" type="line"/>
      <point x="1" y="723" type="line"/>
      <point x="0" y="720" type="line"/>
    </contour>
  </outline>
</glyph>
<glyph name="acutecomb" format="2">
  <unicode hex="0301"/>
  <anchor x="58" y="526" name="_top"/>
  <anchor x="58" y="723" name="top"/>
  <outline>
    <contour>
      <point x="0" y="591" type="line"/>
      <point x="69" y="591" type="line"/>
      <point x="177" y="720" type="line"/>
      <point x="176" y="723" type="line"/>
      <point x="86" y="723" type="line"/>
    </contour>
  </outline>
</glyph>
<glyph name="circumflexcomb" format="2">
  <unicode hex="0302"/>
  <anchor x="125" y="526" name="_top"/>
  <anchor x="125" y="693" name="top"/>
  <outline>
    <contour>
      <point x="0" y="587" type="line"/>
      <point x="80" y="587" type="line"/>
      <point x="125" y="666" type="line"/>
      <point x="169" y="587" type="line"/>
      <point x="249" y="587" type="line"/>
      <point x="164" y="722" type="line"/>
      <point x="86" y="722" type="line"/>
    </contour>
  </outline>
</glyph>
<glyph name="tildecomb" format="2">
  <unicode hex="0303"/>
  <anchor x="146" y="526" name="_top"/>
  <anchor x="146" y="723" name="top"/>
  <outline>
    <contour>
      <point x="0" y="619" type="curve"/>
      <point x="58" y="619" type="line"/>
      <point x="61" y="642"/>
      <point x="74" y="650"/>
      <point x="92" y="650" type="curve" smooth="yes"/>
      <point x="131" y="650"/>
      <point x="164" y="619"/>
      <point x="207" y="619" type="curve" smooth="yes"/>
      <point x="267" y="619"/>
      <point x="292" y="677"/>
      <point x="292" y="723" type="curve"/>
      <point x="234" y="723" type="line"/>
      <point x="231" y="700"/>
      <point x="218" y="692"/>
      <point x="200" y="692" type="curve" smooth="yes"/>
      <point x="161" y="692"/>
      <point x="128" y="723"/>
      <point x="85" y="723" type="curve" smooth="yes"/>
      <point x="25" y="723"/>
      <point x="0" y="665"/>
    </contour>
  </outline>
</glyph>
<glyph name="macroncomb" format="2">
  <unicode hex="0304"/>
  <anchor x="125" y="526" name="_top"/>
  <anchor x="125" y="671" name="top"/>
  <outline>
    <contour>
      <point x="0" y="599" type="line"/>
      <point x="250" y="599" type="line"/>
      <point x="250" y="671" type="line"/>
      <point x="0" y="671" type="line"/>
    </contour>
  </outline>
</glyph>
<glyph name="brevecomb" format="2">
  <unicode hex="0306"/>
  <anchor x="124" y="526" name="_top"/>
  <anchor x="124" y="650" name="top"/>
  <outline>
    <contour>
      <point x="123" y="586" type="curve" smooth="yes"/>
      <point x="200" y="586"/>
      <point x="247" y="638"/>
      <point x="247" y="683" type="curve"/>
      <point x="183" y="683" type="line"/>
      <point x="181" y="669"/>
      <point x="157" y="650"/>
      <point x="123" y="650" type="curve" smooth="yes"/>
      <point x="90" y="650"/>
      <point x="67" y="669"/>
      <point x="64" y="683" type="curve"/>
      <point x="0" y="683" type="line"/>
      <point x="0" y="638"/>
      <point x="47" y="586"/>
    </contour>
  </outline>
</glyph>
<glyph name="dotaccentcomb" format="2">
  <unicode hex="0307"/>
  <anchor x="43" y="526" name="_top"/>
  <anchor x="43" y="723" name="top"/>
  <outline>
    <contour>
      <point x="0" y="628" type="line"/>
      <point x="85" y="628" type="line"/>
      <point x="85" y="723" type="line"/>
      <point x="0" y="723" type="line"/>
    </contour>
  </outline>
</glyph>
<glyph name="ringcomb" format="2">
  <unicode hex="030A"/>
  <anchor x="96" y="526" name="_top"/>
  <anchor x="96" y="723" name="top"/>
  <outline>
    <contour>
      <point x="96" y="562" type="curve" smooth="yes"/>
      <point x="149" y="562"/>
      <point x="192" y="605"/>
      <point x="192" y="659" type="curve" smooth="yes"/>
      <point x="192" y="710"/>
      <point x="150" y="754"/>
      <point x="96" y="754" type="curve" smooth="yes"/>
      <point x="43" y="754"/>
      <point x="0" y="712"/>
      <point x="0" y="659" type="curve" smooth="yes"/>
      <point x="0" y="604"/>
      <point x="44" y="562"/>
    </contour>
    <contour>
      <point x="96" y="607" type="curve" smooth="yes"/>
      <point x="68" y="607"/>
      <point x="45" y="631"/>
      <point x="45" y="659" type="curve" smooth="yes"/>
      <point x="45" y="687"/>
      <point x="68" y="709"/>
      <point x="96" y="709" type="curve" smooth="yes"/>
      <point x="123" y="709"/>
      <point x="147" y="687"/>
      <point x="147" y="659" type="curve" smooth="yes"/>
      <point x="147" y="631"/>
      <point x="123" y="607"/>
    </contour>
  </outline>
</glyph>
<glyph name="hungarumlautcomb" format="2">
  <unicode hex="030B"/>
  <anchor x="100" y="526" name="_top"/>
  <anchor x="100" y="723" name="top"/>
  <outline>
    <contour>
      <point x="134" y="591" type="line"/>
      <point x="203" y="591" type="line"/>
      <point x="287" y="720" type="line"/>
      <point x="286" y="723" type="line"/>
      <point x="196" y="723" type="line"/>
    </contour>
    <contour>
      <point x="4" y="591" type="line"/>
      <point x="73" y="591" type="line"/>
      <point x="157" y="720" type="line"/>
      <point x="156" y="723" type="line"/>
      <point x="66" y="723" type="line"/>
    </contour>
  </outline>
</glyph>
<glyph name="caroncomb" format="2">
  <unicode hex="030C"/>
  <anchor x="125" y="526" name="_top"/>
  <anchor x="125" y="723" name="top"/>
  <outline>
    <contour>
      <point x="85" y="588" type="line"/>
      <point x="163" y="588" type="line"/>
      <point x="249" y="723" type="line"/>
      <point x="169" y="723" type="line"/>
      <point x="124" y="644" type="line"/>
      <point x="80" y="723" type="line"/>
      <point x="0" y="723" type="line"/>
    </contour>
  </outline>
</glyph>
<glyph name="dblgravecomb" format="2">
  <unicode hex="030F"/>
  <anchor x="187" y="526" name="_top"/>
  <anchor x="187" y="723" name="top"/>
  <outline>
    <contour>
      <point x="215" y="591" type="line"/>
      <point x="283" y="591" type="line"/>
      <point x="221" y="723" type="line"/>
      <point x="132" y="723" type="line"/>
      <point x="131" y="720" type="line"/>
    </contour>
    <contour>
      <point x="84" y="591" type="line"/>
      <point x="154" y="591" type="line"/>
      <point x="92" y="723" type="line"/>
      <point x="1" y="723" type="line"/>
      <point x="0" y="720" type="line"/>
    </contour>
  </outline>
</glyph>
<glyph name="breveinvertedcomb" format="2">
  <unicode hex="0311"/>
  <anchor x="124" y="526" name="_top"/>
  <anchor x="124" y="693" name="top"/>
  <outline>
    <contour>
      <point x="0" y="596" type="curve"/>
      <point x="64" y="596" type="line"/>
      <point x="67" y="610"/>
      <point x="90" y="629"/>
      <point x="123" y="629" type="curve" smooth="yes"/>
      <point x="157" y="629"/>
      <point x="181" y="610"/>
      <point x="183" y="596" type="curve"/>
      <point x="247" y="596" type="line"/>
      <point x="247" y="641"/>
      <point x="200" y="693"/>
      <point x="123" y="693" type="curve" smooth="yes"/>
      <point x="47" y="693"/>
      <point x="0" y="641"/>
    </contour>
  </outline>
</glyph>
<glyph name="commaturnedabovecomb" format="2">
  <unicode hex="0312"/>
  <anchor x="43" y="526" name="_top"/>
  <anchor x="43" y="686" name="top"/>
  <outline>
    <contour>
      <point x="0" y="628" type="line"/>
      <point x="85" y="628" type="line"/>
      <point x="85" y="719" type="line"/>
      <point x="50" y="719" type="line"/>
      <point x="70" y="780" type="line"/>
      <point x="29" y="780" type="line"/>
      <point x="0" y="712" type="line"/>
    </contour>
  </outline>
</glyph>
<glyph name="horncomb" format="2">
  <unicode hex="031B"/>
  <anchor x="0" y="526" name="_topright"/>
  <anchor x="0" y="640" name="topright"/>
  <outline>
    <contour>
      <point x="0" y="476" type="line"/>
      <point x="75" y="476" type="line" smooth="yes"/>
      <point x="139" y="476"/>
      <point x="180" y="516"/>
      <point x="180" y="579" type="curve" smooth="yes"/>
      <point x="180" y="640" type="line"/>
      <point x="114" y="640" type="line"/>
      <point x="114" y="579" type="line" smooth="yes"/>
      <point x="114" y="543"/>
      <point x="99" y="526"/>
      <point x="55" y="526" type="curve" smooth="yes"/>
      <point x="0" y="526" type="line"/>
    </contour>
  </outline>
</glyph>
<glyph name="dotbelowcomb" format="2">
  <unicode hex="0323"/>
  <anchor x="44" y="0" name="_bottom"/>
  <anchor x="44" y="-182" name="bottom"/>
  <outline>
    <contour>
      <point x="0" y="-182" type="line"/>
      <point x="87" y="-182" type="line"/>
      <point x="87" y="-88" type="line"/>
      <point x="0" y="-88" type="line"/>
    </contour>
  </outline>
</glyph>
<glyph name="commaaccentcomb" format="2">
  <unicode hex="0326"/>
  <anchor x="43" y="0" name="_bottom"/>
  <anchor x="43" y="-182" name="bottom"/>
  <outline>
    <contour>
      <point x="15" y="-240" type="line"/>
      <point x="56" y="-240" type="line"/>
      <point x="85" y="-172" type="line"/>
      <point x="85" y="-88" type="line"/>
      <point x="0" y="-88" type="line"/>
      <point x="0" y="-179" type="line"/>
      <point x="35" y="-179" type="line"/>
    </contour>
  </outline>
</glyph>
<glyph name="ogonekcomb" format="2">
  <unicode hex="0328"/>
  <anchor x="106" y="0" name="_ogonek"/>
  <outline>
    <contour>
      <point x="94" y="-182" type="curve" smooth="yes"/>
      <point x="114" y="-182"/>
      <point x="134" y="-177"/>
      <point x="155" y="-168" type="curve"/>
      <point x="155" y="-117" type="line"/>
      <point x="123" y="-117" type="line" smooth="yes"/>
      <point x="93" y="-117"/>
      <point x="77" y="-98"/>
      <point x="77" y="-70" type="curve" smooth="yes"/>
      <point x="77" y="-49"/>
      <point x="86" y="-24"/>
      <point x="106" y="0" type="curve"/>
      <point x="105" y="4" type="line"/>
      <point x="46" y="4" type="line"/>
      <point x="22" y="-26"/>
      <point x="0" y="-53"/>
      <point x="0" y="-92" type="curve" smooth="yes"/>
      <point x="0" y="-161"/>
      <point x="51" y="-182"/>
    </contour>
  </outline>
</glyph>
<glyph name="brevebelowcomb" format="2">
  <unicode hex="032E"/>
  <anchor x="124" y="0" name="_bottom"/>
  <anchor x="124" y="-182" name="bottom"/>
  <outline>
    <contour>
      <point x="123" y="-185" type="curve" smooth="yes"/>
      <point x="200" y="-185"/>
      <point x="247" y="-133"/>
      <point x="247" y="-88" type="curve"/>
      <point x="183" y="-88" type="line"/>
      <point x="181" y="-102"/>
      <point x="157" y="-121"/>
      <point x="123" y="-121" type="curve" smooth="yes"/>
      <point x="90" y="-121"/>
      <point x="67" y="-102"/>
      <point x="64" y="-88" type="curve"/>
      <point x="0" y="-88" type="line"/>
      <point x="0" y="-133"/>
      <point x="47" y="-185"/>
    </contour>
  </outline>
</glyph>
<glyph name="strokeshortcomb" format="2">
  <unicode hex="0335"/>
  <anchor x="250" y="354" name="_center"/>
  <outline>
    <contour>
      <point x="0" y="327" type="line"/>
      <point x="500" y="327" type="line"/>
      <point x="500" y="380" type="line"/>
      <point x="0" y="380" type="line"/>
    </contour>
  </outline>
</glyph>
<glyph name="strokelongcomb" format="2">
  <unicode hex="0336"/>
  <anchor x="276" y="370" name="_center"/>
  <outline>
    <contour>
      <point x="0" y="331" type="line"/>
      <point x="552" y="331" type="line"/>
      <point x="552" y="409" type="line"/>
      <point x="0" y="409" type="line"/>
    </contour>
  </outline>
</glyph>
<glyph name="slashlongcomb" format="2">
  <unicode hex="0338"/>
  <anchor x="188" y="263" name="_center"/>
  <outline>
    <contour>
      <point x="0" y="-32" type="line"/>
      <point x="55" y="-32" type="line"/>
      <point x="376" y="558" type="line"/>
      <point x="321" y="558" type="line"/>
    </contour>
  </outline>
</glyph>
<glyph name="Germandbls" format="2">
  <advance width="611"/>
  <unicode hex="1E9E"/>
  <outline>
    <contour>
      <point x="65" y="0" type="line"/>
      <point x="150" y="0" type="line"/>
      <point x="150" y="424" type="line" smooth="yes"/>
      <point x="150" y="562"/>
      <point x="196" y="622"/>
      <point x="317" y="622" type="curve" smooth="yes"/>
      <point x="426" y="622"/>
      <point x="464" y="571"/>
      <point x="464" y="494" type="curve" smooth="yes"/>
      <point x="464" y="423"/>
      <point x="419" y="376"/>
      <point x="356" y="376" type="curve" smooth="yes"/>
      <point x="240" y="376" type="line"/>
      <point x="240" y="303" type="line"/>
      <point x="359" y="303" type="line" smooth="yes"/>
      <point x="447" y="303"/>
      <point x="498" y="257"/>
      <point x="498" y="192" type="curve" smooth="yes"/>
      <point x="498" y="115"/>
      <point x="456" y="73"/>
      <point x="379" y="73" type="curve" smooth="yes"/>
      <point x="240" y="73" type="line"/>
      <point x="240" y="0" type="line"/>
      <point x="392" y="0" type="line" smooth="yes"/>
      <point x="508" y="0"/>
      <point x="585" y="75"/>
      <point x="585" y="187" type="curve" smooth="yes"/>
      <point x="585" y="271"/>
      <point x="537" y="327"/>
      <point x="460" y="347" type="curve"/>
      <point x="460" y="351" type="line"/>
      <point x="510" y="371"/>
      <point x="551" y="431"/>
      <point x="551" y="503" type="curve" smooth="yes"/>
      <point x="551" y="621"/>
      <point x="464" y="698"/>
      <point x="318" y="698" type="curve" smooth="yes"/>
      <point x="150" y="698"/>
      <point x="65" y="606"/>
      <point x="65" y="424" type="curve" smooth="yes"/>
    </contour>
  </outline>
</glyph>
<glyph name="fraction" format="2">
  <advance width="137"/>
  <unicode hex="2044"/>
  <outline>
    <contour>
      <point x="-171" y="-12" type="line"/>
      <point x="-108" y="-12" type="line"/>
      <point x="307" y="698" type="line"/>
      <point x="245" y="698" type="line"/>
    </contour>
  </outline>
</glyph>
<glyph name="commercialMinusSign" format="2">
  <advance width="600"/>
  <unicode hex="2052"/>
  <outline>
    <contour>
      <point x="61" y="-12" type="line"/>
      <point x="124" y="-12" type="line"/>
      <point x="539" y="698" type="line"/>
      <point x="477" y="698" type="line"/>
    </contour>
    <contour>
      <point x="71" y="575" type="line"/>
      <point x="172" y="575" type="line"/>
      <point x="172" y="686" type="line"/>
      <point x="71" y="686" type="line"/>
    </contour>
    <contour>
      <point x="428" y="0" type="line"/>
      <point x="529" y="0" type="line"/>
      <point x="529" y="111" type="line"/>
      <point x="428" y="111" type="line"/>
    </contour>
  </outline>
</glyph>
<glyph name="zerosuperior" format="2">
  <advance width="273"/>
  <unicode hex="2070"/>
  <outline>
    <contour>
      <point x="137" y="428" type="curve" smooth="yes"/>
      <point x="204" y="428"/>
      <point x="244" y="467"/>
      <point x="244" y="612" type="curve" smooth="yes"/>
      <point x="244" y="758"/>
      <point x="204" y="798"/>
      <point x="137" y="798" type="curve" smooth="yes"/>
      <point x="69" y="798"/>
      <point x="29" y="758"/>
      <point x="29" y="612" type="curve" smooth="yes"/>
      <point x="29" y="467"/>
      <point x="69" y="428"/>
    </contour>
    <contour>
      <point x="137" y="489" type="curve" smooth="yes"/>
      <point x="103" y="489"/>
      <point x="94" y="517"/>
      <point x="94" y="589" type="curve" smooth="yes"/>
      <point x="94" y="637" type="line" smooth="yes"/>
      <point x="94" y="699"/>
      <point x="103" y="737"/>
      <point x="137" y="737" type="curve" smooth="yes"/>
      <point x="170" y="737"/>
      <point x="179" y="699"/>
      <point x="179" y="637" type="curve" smooth="yes"/>
      <point x="179" y="589" type="line" smooth="yes"/>
      <point x="179" y="517"/>
      <point x="170" y="489"/>
    </contour>
  </outline>
</glyph>
<glyph name="foursuperior" format="2">
  <advance width="273"/>
  <unicode hex="2074"/>
  <outline>
    <contour>
      <point x="156" y="434" type="line"/>
      <point x="220" y="434" type="line"/>
      <point x="220" y="513" type="line"/>
      <point x="254" y="513" type="line"/>
      <point x="254" y="573" type="line"/>
      <point x="220" y="573" type="line"/>
      <point x="220" y="740" type="line"/>
      <point x="186" y="740" type="line"/>
      <point x="179" y="708"/>
      <point x="167" y="657"/>
      <point x="156" y="633" type="curve"/>
      <point x="156" y="573" type="line"/>
      <point x="83" y="573" type="line"/>
      <point x="109" y="614"/>
      <point x="156" y="712"/>
      <point x="176" y="799" type="curve"/>
      <point x="106" y="799" type="line"/>
      <point x="89" y="707"/>
      <point x="59" y="627"/>
      <point x="19" y="562" type="curve"/>
      <point x="19" y="513" type="line"/>
      <point x="156" y="513" type="line"/>
    </contour>
  </outline>
</glyph>
<glyph name="fivesuperior" format="2">
  <advance width="273"/>
  <unicode hex="2075"/>
  <outline>
    <contour>
      <point x="140" y="430" type="curve" smooth="yes"/>
      <point x="204" y="430"/>
      <point x="247" y="480"/>
      <point x="247" y="554" type="curve" smooth="yes"/>
      <point x="247" y="625"/>
      <point x="209" y="673"/>
      <point x="153" y="673" type="curve" smooth="yes"/>
      <point x="137" y="673"/>
      <point x="118" y="667"/>
      <point x="105" y="657" type="curve"/>
      <point x="111" y="730" type="line"/>
      <point x="229" y="730" type="line"/>
      <point x="229" y="786" type="line"/>
      <point x="58" y="786" type="line"/>
      <point x="43" y="606" type="line"/>
      <point x="96" y="597" type="line"/>
      <point x="106" y="610"/>
      <point x="122" y="619"/>
      <point x="134" y="619" type="curve" smooth="yes"/>
      <point x="164" y="619"/>
      <point x="185" y="593"/>
      <point x="185" y="554" type="curve" smooth="yes"/>
      <point x="185" y="512"/>
      <point x="167" y="483"/>
      <point x="140" y="483" type="curve" smooth="yes"/>
      <point x="111" y="483"/>
      <point x="92" y="510"/>
      <point x="92" y="550" type="curve"/>
      <point x="31" y="550" type="line"/>
      <point x="31" y="473"/>
      <point x="70" y="430"/>
    </contour>
  </outline>
</glyph>
<glyph name="sixsuperior" format="2">
  <advance width="273"/>
  <unicode hex="2076"/>
  <outline>
    <contour>
      <point x="142" y="428" type="curve" smooth="yes"/>
      <point x="204" y="428"/>
      <point x="246" y="474"/>
      <point x="246" y="543" type="curve" smooth="yes"/>
      <point x="246" y="609"/>
      <point x="218" y="661"/>
      <point x="154" y="661" type="curve" smooth="yes"/>
      <point x="126" y="661"/>
      <point x="104" y="649"/>
      <point x="92" y="632" type="curve"/>
      <point x="93" y="700"/>
      <point x="101" y="742"/>
      <point x="138" y="742" type="curve" smooth="yes"/>
      <point x="165" y="742"/>
      <point x="179" y="720"/>
      <point x="179" y="682" type="curve"/>
      <point x="237" y="682" type="line"/>
      <point x="237" y="759"/>
      <point x="204" y="798"/>
      <point x="140" y="798" type="curve" smooth="yes"/>
      <point x="61" y="798"/>
      <point x="32" y="745"/>
      <point x="32" y="603" type="curve" smooth="yes"/>
      <point x="32" y="483"/>
      <point x="67" y="428"/>
    </contour>
    <contour>
      <point x="141" y="486" type="curve" smooth="yes"/>
      <point x="112" y="486"/>
      <point x="96" y="511"/>
      <point x="96" y="549" type="curve" smooth="yes"/>
      <point x="96" y="584"/>
      <point x="112" y="607"/>
      <point x="141" y="607" type="curve" smooth="yes"/>
      <point x="172" y="607"/>
      <point x="186" y="584"/>
      <point x="186" y="549" type="curve" smooth="yes"/>
      <point x="186" y="511"/>
      <point x="172" y="486"/>
    </contour>
  </outline>
</glyph>
<glyph name="sevensuperior" format="2">
  <advance width="273"/>
  <unicode hex="2077"/>
  <outline>
    <contour>
      <point x="84" y="428" type="curve"/>
      <point x="155" y="428" type="line"/>
      <point x="155" y="440"/>
      <point x="155" y="446"/>
      <point x="155" y="456" type="curve" smooth="yes"/>
      <point x="155" y="571"/>
      <point x="194" y="684"/>
      <point x="243" y="758" type="curve"/>
      <point x="243" y="786" type="line"/>
      <point x="40" y="786" type="line"/>
      <point x="40" y="730" type="line"/>
      <point x="169" y="730" type="line"/>
      <point x="121" y="659"/>
      <point x="84" y="546"/>
    </contour>
  </outline>
</glyph>
<glyph name="eightsuperior" format="2">
  <advance width="273"/>
  <unicode hex="2078"/>
  <outline>
    <contour>
      <point x="137" y="428" type="curve" smooth="yes"/>
      <point x="210" y="428"/>
      <point x="239" y="475"/>
      <point x="239" y="528" type="curve" smooth="yes"/>
      <point x="239" y="569"/>
      <point x="226" y="601"/>
      <point x="191" y="620" type="curve"/>
      <point x="217" y="637"/>
      <point x="231" y="666"/>
      <point x="231" y="699" type="curve" smooth="yes"/>
      <point x="231" y="753"/>
      <point x="198" y="798"/>
      <point x="137" y="798" type="curve" smooth="yes"/>
      <point x="75" y="798"/>
      <point x="42" y="753"/>
      <point x="42" y="699" type="curve" smooth="yes"/>
      <point x="42" y="666"/>
      <point x="56" y="637"/>
      <point x="82" y="620" type="curve"/>
      <point x="47" y="601"/>
      <point x="34" y="569"/>
      <point x="34" y="528" type="curve" smooth="yes"/>
      <point x="34" y="475"/>
      <point x="63" y="428"/>
    </contour>
    <contour>
      <point x="138" y="485" type="curve" smooth="yes"/>
      <point x="111" y="485"/>
      <point x="97" y="503"/>
      <point x="97" y="535" type="curve" smooth="yes"/>
      <point x="97" y="571"/>
      <point x="111" y="594"/>
      <point x="138" y="594" type="curve" smooth="yes"/>
      <point x="164" y="594"/>
      <point x="178" y="571"/>
      <point x="178" y="535" type="curve" smooth="yes"/>
      <point x="178" y="503"/>
      <point x="164" y="485"/>
    </contour>
    <contour>
      <point x="138" y="646" type="curve" smooth="yes"/>
      <point x="116" y="646"/>
      <point x="104" y="666"/>
      <point x="104" y="698" type="curve" smooth="yes"/>
      <point x="104" y="729"/>
      <point x="116" y="746"/>
      <point x="138" y="746" type="curve" smooth="yes"/>
      <point x="159" y="746"/>
      <point x="172" y="729"/>
      <point x="172" y="698" type="curve" smooth="yes"/>
      <point x="172" y="666"/>
      <point x="159" y="646"/>
    </contour>
  </outline>
</glyph>
<glyph name="ninesuperior" format="2">
  <advance width="273"/>
  <unicode hex="2079"/>
  <outline>
    <contour>
      <point x="137" y="428" type="curve" smooth="yes"/>
      <point x="202" y="428"/>
      <point x="240" y="474"/>
      <point x="240" y="624" type="curve" smooth="yes"/>
      <point x="240" y="756"/>
      <point x="200" y="798"/>
      <point x="132" y="798" type="curve" smooth="yes"/>
      <point x="75" y="798"/>
      <point x="33" y="754"/>
      <point x="33" y="683" type="curve" smooth="yes"/>
      <point x="33" y="619"/>
      <point x="64" y="568"/>
      <point x="128" y="568" type="curve" smooth="yes"/>
      <point x="148" y="568"/>
      <point x="164" y="576"/>
      <point x="178" y="590" type="curve"/>
      <point x="177" y="524"/>
      <point x="170" y="483"/>
      <point x="139" y="483" type="curve" smooth="yes"/>
      <point x="114" y="483"/>
      <point x="103" y="505"/>
      <point x="103" y="544" type="curve"/>
      <point x="42" y="544" type="line"/>
      <point x="42" y="478"/>
      <point x="69" y="428"/>
    </contour>
    <contour>
      <point x="134" y="622" type="curve" smooth="yes"/>
      <point x="108" y="622"/>
      <point x="94" y="645"/>
      <point x="94" y="683" type="curve" smooth="yes"/>
      <point x="94" y="721"/>
      <point x="107" y="745"/>
      <point x="134" y="745" type="curve" smooth="yes"/>
      <point x="162" y="745"/>
      <point x="175" y="717"/>
      <point x="175" y="683" type="curve" smooth="yes"/>
      <point x="175" y="645"/>
      <point x="161" y="622"/>
    </contour>
  </outline>
</glyph>
<glyph name="colonsign" format="2">
  <advance width="592"/>
  <unicode hex="20A1"/>
  <outline>
    <contour>
      <point x="312" y="-12" type="curve" smooth="yes"/>
      <point x="451" y="-12"/>
      <point x="549" y="69"/>
      <point x="549" y="246" type="curve"/>
      <point x="469" y="246" type="line"/>
      <point x="469" y="124"/>
      <point x="407" y="64"/>
      <point x="312" y="64" type="curve" smooth="yes"/>
      <point x="190" y="64"/>
      <point x="131" y="148"/>
      <point x="131" y="318" type="curve" smooth="yes"/>
      <point x="131" y="368" type="line" smooth="yes"/>
      <point x="131" y="538"/>
      <point x="190" y="622"/>
      <point x="312" y="622" type="curve" smooth="yes"/>
      <point x="405" y="622"/>
      <point x="466" y="561"/>
      <point x="466" y="438" type="curve"/>
      <point x="549" y="438" type="line"/>
      <point x="549" y="613"/>
      <point x="451" y="698"/>
      <point x="312" y="698" type="curve" smooth="yes"/>
      <point x="135" y="698"/>
      <point x="44" y="581"/>
      <point x="44" y="343" type="curve" smooth="yes"/>
      <point x="44" y="105"/>
      <point x="135" y="-12"/>
    </contour>
    <contour>
      <point x="137" y="-109" type="line"/>
      <point x="186" y="-109" type="line"/>
      <point x="362" y="783" type="line"/>
      <point x="314" y="783" type="line"/>
    </contour>
    <contour>
      <point x="249" y="-109" type="line"/>
      <point x="298" y="-109" type="line"/>
      <point x="474" y="783" type="line"/>
      <point x="426" y="783" type="line"/>
    </contour>
  </outline>
</glyph>
<glyph name="franc" format="2">
  <advance width="504"/>
  <unicode hex="20A3"/>
  <outline>
    <contour>
      <point x="70" y="0" type="line"/>
      <point x="158" y="0" type="line"/>
      <point x="158" y="304" type="line"/>
      <point x="430" y="304" type="line"/>
      <point x="430" y="384" type="line"/>
      <point x="158" y="384" type="line"/>
      <point x="158" y="606" type="line"/>
      <point x="466" y="606" type="line"/>
      <point x="466" y="686" type="line"/>
      <point x="70" y="686" type="line"/>
    </contour>
    <contour>
      <point x="10" y="121" type="line"/>
      <point x="346" y="121" type="line"/>
      <point x="346" y="186" type="line"/>
      <point x="10" y="186" type="line"/>
    </contour>
  </outline>
</glyph>
<glyph name="naira" format="2">
  <advance width="592"/>
  <unicode hex="20A6"/>
  <outline>
    <contour>
      <point x="85" y="0" type="line"/>
      <point x="161" y="0" type="line"/>
      <point x="161" y="434" type="line" smooth="yes"/>
      <point x="161" y="462"/>
      <point x="157" y="525"/>
      <point x="157" y="525" type="curve"/>
      <point x="163" y="526" type="line"/>
      <point x="163" y="526"/>
      <point x="191" y="464"/>
      <point x="207" y="434" type="curve" smooth="yes"/>
      <point x="437" y="0" type="line"/>
      <point x="507" y="0" type="line"/>
      <point x="507" y="686" type="line"/>
      <point x="431" y="686" type="line"/>
      <point x="431" y="258" type="line" smooth="yes"/>
      <point x="431" y="236"/>
      <point x="434" y="167"/>
      <point x="434" y="167" type="curve"/>
      <point x="428" y="166" type="line"/>
      <point x="428" y="166"/>
      <point x="400" y="232"/>
      <point x="386" y="258" type="curve" smooth="yes"/>
      <point x="158" y="686" type="line"/>
      <point x="85" y="686" type="line"/>
    </contour>
    <contour>
      <point x="0" y="243" type="line"/>
      <point x="129" y="243" type="line"/>
      <point x="129" y="308" type="line"/>
      <point x="0" y="308" type="line"/>
    </contour>
    <contour>
      <point x="0" y="378" type="line"/>
      <point x="129" y="378" type="line"/>
      <point x="129" y="443" type="line"/>
      <point x="0" y="443" type="line"/>
    </contour>
    <contour>
      <point x="463" y="243" type="line"/>
      <point x="592" y="243" type="line"/>
      <point x="592" y="308" type="line"/>
      <point x="463" y="308" type="line"/>
    </contour>
    <contour>
      <point x="463" y="378" type="line"/>
      <point x="592" y="378" type="line"/>
      <point x="592" y="443" type="line"/>
      <point x="463" y="443" type="line"/>
    </contour>
  </outline>
</glyph>
<glyph name="won" format="2">
  <advance width="694"/>
  <unicode hex="20A9"/>
  <outline>
    <contour>
      <point x="134" y="0" type="line"/>
      <point x="248" y="0" type="line"/>
      <point x="325" y="465" type="line" smooth="yes"/>
      <point x="333" y="511"/>
      <point x="344" y="603"/>
      <point x="344" y="603" type="curve"/>
      <point x="348" y="603" type="line"/>
      <point x="348" y="603"/>
      <point x="359" y="511"/>
      <point x="367" y="465" type="curve" smooth="yes"/>
      <point x="446" y="0" type="line"/>
      <point x="560" y="0" type="line"/>
      <point x="684" y="686" type="line"/>
      <point x="604" y="686" type="line"/>
      <point x="530" y="212" type="line" smooth="yes"/>
      <point x="523" y="163"/>
      <point x="513" y="80"/>
      <point x="513" y="80" type="curve"/>
      <point x="509" y="80" type="line"/>
      <point x="509" y="80"/>
      <point x="499" y="158"/>
      <point x="491" y="212" type="curve" smooth="yes"/>
      <point x="411" y="686" type="line"/>
      <point x="289" y="686" type="line"/>
      <point x="215" y="212" type="line" smooth="yes"/>
      <point x="206" y="147"/>
      <point x="198" y="80"/>
      <point x="198" y="80" type="curve"/>
      <point x="194" y="80" type="line"/>
      <point x="194" y="80"/>
      <point x="184" y="169"/>
      <point x="178" y="212" type="curve" smooth="yes"/>
      <point x="103" y="686" type="line"/>
      <point x="10" y="686" type="line"/>
    </contour>
    <contour>
      <point x="0" y="304" type="line"/>
      <point x="694" y="304" type="line"/>
      <point x="694" y="376" type="line"/>
      <point x="0" y="376" type="line"/>
    </contour>
  </outline>
</glyph>
<glyph name="dong" format="2">
  <advance width="456"/>
  <unicode hex="20AB"/>
  <outline>
    <contour>
      <point x="203" y="58" type="curve" smooth="yes"/>
      <point x="251" y="58"/>
      <point x="293" y="83"/>
      <point x="318" y="131" type="curve"/>
      <point x="323" y="131" type="line"/>
      <point x="334" y="70" type="line"/>
      <point x="393" y="70" type="line"/>
      <point x="393" y="723" type="line"/>
      <point x="314" y="723" type="line"/>
      <point x="314" y="446" type="line"/>
      <point x="309" y="446" type="line"/>
      <point x="291" y="485"/>
      <point x="248" y="508"/>
      <point x="197" y="508" type="curve" smooth="yes"/>
      <point x="110" y="508"/>
      <point x="40" y="425"/>
      <point x="40" y="284" type="curve" smooth="yes"/>
      <point x="40" y="141"/>
      <point x="103" y="58"/>
    </contour>
    <contour>
      <point x="220" y="126" type="curve" smooth="yes"/>
      <point x="159" y="126"/>
      <point x="126" y="182"/>
      <point x="126" y="283" type="curve" smooth="yes"/>
      <point x="126" y="384"/>
      <point x="159" y="440"/>
      <point x="220" y="440" type="curve" smooth="yes"/>
      <point x="281" y="440"/>
      <point x="314" y="383"/>
      <point x="314" y="281" type="curve" smooth="yes"/>
      <point x="314" y="181"/>
      <point x="281" y="126"/>
    </contour>
    <contour>
      <point x="40" y="-53" type="line"/>
      <point x="393" y="-53" type="line"/>
      <point x="393" y="0" type="line"/>
      <point x="40" y="0" type="line"/>
    </contour>
    <contour>
      <point x="150" y="567" type="line"/>
      <point x="456" y="567" type="line"/>
      <point x="456" y="620" type="line"/>
      <point x="150" y="620" type="line"/>
    </contour>
  </outline>
</glyph>
<glyph name="kip" format="2">
  <advance width="547"/>
  <unicode hex="20AD"/>
  <outline>
    <contour>
      <point x="73" y="0" type="line"/>
      <point x="156" y="0" type="line"/>
      <point x="156" y="304" type="line"/>
      <point x="202" y="304" type="line"/>
      <point x="432" y="0" type="line"/>
      <point x="530" y="0" type="line"/>
      <point x="299" y="304" type="line"/>
      <point x="505" y="304" type="line"/>
      <point x="505" y="369" type="line"/>
      <point x="296" y="369" type="line"/>
      <point x="528" y="686" type="line"/>
      <point x="435" y="686" type="line"/>
      <point x="206" y="369" type="line"/>
      <point x="156" y="369" type="line"/>
      <point x="156" y="686" type="line"/>
      <point x="73" y="686" type="line"/>
      <point x="73" y="369" type="line"/>
      <point x="0" y="369" type="line"/>
      <point x="0" y="304" type="line"/>
      <point x="73" y="304" type="line"/>
    </contour>
  </outline>
</glyph>
<glyph name="peso" format="2">
  <advance width="547"/>
  <unicode hex="20B1"/>
  <outline>
    <contour>
      <point x="70" y="0" type="line"/>
      <point x="153" y="0" type="line"/>
      <point x="153" y="263" type="line"/>
      <point x="275" y="263" type="line" smooth="yes"/>
      <point x="408" y="263"/>
      <point x="490" y="349"/>
      <point x="490" y="476" type="curve" smooth="yes"/>
      <point x="490" y="601"/>
      <point x="417" y="686"/>
      <point x="275" y="686" type="curve" smooth="yes"/>
      <point x="70" y="686" type="line"/>
    </contour>
    <contour>
      <point x="0" y="399" type="line"/>
      <point x="113" y="399" type="line"/>
      <point x="113" y="446" type="line"/>
      <point x="0" y="446" type="line"/>
    </contour>
    <contour>
      <point x="0" y="499" type="line"/>
      <point x="113" y="499" type="line"/>
      <point x="113" y="546" type="line"/>
      <point x="0" y="546" type="line"/>
    </contour>
    <contour>
      <point x="153" y="337" type="line"/>
      <point x="153" y="612" type="line"/>
      <point x="272" y="612" type="line" smooth="yes"/>
      <point x="358" y="612"/>
      <point x="405" y="560"/>
      <point x="405" y="476" type="curve" smooth="yes"/>
      <point x="405" y="392"/>
      <point x="352" y="337"/>
      <point x="272" y="337" type="curve" smooth="yes"/>
    </contour>
    <contour>
      <point x="432" y="399" type="line"/>
      <point x="547" y="399" type="line"/>
      <point x="547" y="446" type="line"/>
      <point x="432" y="446" type="line"/>
    </contour>
    <contour>
      <point x="432" y="499" type="line"/>
      <point x="547" y="499" type="line"/>
      <point x="547" y="546" type="line"/>
      <point x="432" y="546" type="line"/>
    </contour>
  </outline>
</glyph>
<glyph name="guarani" format="2">
  <advance width="638"/>
  <unicode hex="20B2"/>
  <outline>
    <contour>
      <point x="300" y="-109" type="line"/>
      <point x="349" y="-109" type="line"/>
      <point x="349" y="783" type="line"/>
      <point x="300" y="783" type="line"/>
    </contour>
    <contour>
      <point x="319" y="-12" type="curve" smooth="yes"/>
      <point x="402" y="-12"/>
      <point x="468" y="21"/>
      <point x="510" y="100" type="curve"/>
      <point x="493" y="111" type="line"/>
      <point x="520" y="0" type="line"/>
      <point x="573" y="0" type="line"/>
      <point x="573" y="357" type="line"/>
      <point x="305" y="357" type="line"/>
      <point x="305" y="285" type="line"/>
      <point x="520" y="285" type="line"/>
      <point x="488" y="317" type="line"/>
      <point x="488" y="264" type="line" smooth="yes"/>
      <point x="488" y="130"/>
      <point x="436" y="64"/>
      <point x="319" y="64" type="curve" smooth="yes"/>
      <point x="202" y="64"/>
      <point x="138" y="148"/>
      <point x="138" y="318" type="curve" smooth="yes"/>
      <point x="138" y="368" type="line" smooth="yes"/>
      <point x="138" y="538"/>
      <point x="209" y="622"/>
      <point x="324" y="622" type="curve" smooth="yes"/>
      <point x="421" y="622"/>
      <point x="488" y="569"/>
      <point x="488" y="452" type="curve"/>
      <point x="573" y="452" type="line"/>
      <point x="573" y="618"/>
      <point x="467" y="698"/>
      <point x="324" y="698" type="curve" smooth="yes"/>
      <point x="153" y="698"/>
      <point x="49" y="581"/>
      <point x="49" y="343" type="curve" smooth="yes"/>
      <point x="49" y="105"/>
      <point x="146" y="-12"/>
    </contour>
  </outline>
</glyph>
<glyph name="cedi" format="2">
  <advance width="592"/>
  <unicode hex="20B5"/>
  <outline>
    <contour>
      <point x="213" y="-109" type="line"/>
      <point x="264" y="-109" type="line"/>
      <point x="402" y="783" type="line"/>
      <point x="351" y="783" type="line"/>
    </contour>
    <contour>
      <point x="312" y="-12" type="curve" smooth="yes"/>
      <point x="451" y="-12"/>
      <point x="549" y="69"/>
      <point x="549" y="246" type="curve"/>
      <point x="469" y="246" type="line"/>
      <point x="469" y="124"/>
      <point x="407" y="64"/>
      <point x="312" y="64" type="curve" smooth="yes"/>
      <point x="190" y="64"/>
      <point x="131" y="148"/>
      <point x="131" y="318" type="curve" smooth="yes"/>
      <point x="131" y="368" type="line" smooth="yes"/>
      <point x="131" y="538"/>
      <point x="190" y="622"/>
      <point x="312" y="622" type="curve" smooth="yes"/>
      <point x="405" y="622"/>
      <point x="466" y="561"/>
      <point x="466" y="438" type="curve"/>
      <point x="549" y="438" type="line"/>
      <point x="549" y="613"/>
      <point x="451" y="698"/>
      <point x="312" y="698" type="curve" smooth="yes"/>
      <point x="135" y="698"/>
      <point x="44" y="581"/>
      <point x="44" y="343" type="curve" smooth="yes"/>
      <point x="44" y="105"/>
      <point x="135" y="-12"/>
    </contour>
  </outline>
</glyph>
<glyph name="rupeeIndian" format="2">
  <advance width="560"/>
  <unicode hex="20B9"/>
  <outline>
    <contour>
      <point x="314" y="0" type="line"/>
      <point x="418" y="0" type="line"/>
      <point x="165" y="303" type="line"/>
      <point x="213" y="303" type="line" smooth="yes"/>
      <point x="325" y="303"/>
      <point x="404" y="364"/>
      <point x="418" y="462" type="curve"/>
      <point x="500" y="462" type="line"/>
      <point x="500" y="527" type="line"/>
      <point x="418" y="527" type="line"/>
      <point x="411" y="568"/>
      <point x="388" y="603"/>
      <point x="351" y="630" type="curve"/>
      <point x="331" y="621" type="line"/>
      <point x="500" y="621" type="line"/>
      <point x="500" y="686" type="line"/>
      <point x="50" y="686" type="line"/>
      <point x="50" y="616" type="line"/>
      <point x="213" y="616" type="line" smooth="yes"/>
      <point x="280" y="616"/>
      <point x="322" y="583"/>
      <point x="333" y="527" type="curve"/>
      <point x="50" y="527" type="line"/>
      <point x="50" y="462" type="line"/>
      <point x="332" y="462" type="line"/>
      <point x="320" y="407"/>
      <point x="275" y="373"/>
      <point x="213" y="373" type="curve" smooth="yes"/>
      <point x="50" y="373" type="line"/>
      <point x="50" y="318" type="line"/>
    </contour>
  </outline>
</glyph>
<glyph name="liraTurkish" format="2">
  <advance width="456"/>
  <unicode hex="20BA"/>
  <outline>
    <contour>
      <point x="70" y="0" type="line"/>
      <point x="153" y="0" type="line"/>
      <point x="358" y="0"/>
      <point x="438" y="71"/>
      <point x="438" y="254" type="curve"/>
      <point x="358" y="254" type="line"/>
      <point x="358" y="119"/>
      <point x="308" y="76"/>
      <point x="153" y="76" type="curve"/>
      <point x="153" y="686" type="line"/>
      <point x="70" y="686" type="line"/>
    </contour>
    <contour>
      <point x="0" y="335" type="line"/>
      <point x="358" y="475" type="line"/>
      <point x="358" y="542" type="line"/>
      <point x="0" y="402" type="line"/>
    </contour>
    <contour>
      <point x="0" y="193" type="line"/>
      <point x="358" y="333" type="line"/>
      <point x="358" y="400" type="line"/>
      <point x="0" y="260" type="line"/>
    </contour>
  </outline>
</glyph>
<glyph name="manat" format="2">
  <advance width="600"/>
  <unicode hex="20BC"/>
  <outline>
    <contour>
      <point x="56" y="0" type="line"/>
      <point x="139" y="0" type="line"/>
      <point x="139" y="427" type="line" smooth="yes"/>
      <point x="139" y="560"/>
      <point x="190" y="622"/>
      <point x="300" y="622" type="curve" smooth="yes"/>
      <point x="410" y="622"/>
      <point x="462" y="560"/>
      <point x="462" y="427" type="curve" smooth="yes"/>
      <point x="462" y="0" type="line"/>
      <point x="545" y="0" type="line"/>
      <point x="545" y="422" type="line" smooth="yes"/>
      <point x="545" y="603"/>
      <point x="458" y="698"/>
      <point x="300" y="698" type="curve" smooth="yes"/>
      <point x="142" y="698"/>
      <point x="56" y="603"/>
      <point x="56" y="422" type="curve" smooth="yes"/>
    </contour>
    <contour>
      <point x="276" y="110" type="line"/>
      <point x="325" y="110" type="line"/>
      <point x="325" y="783" type="line"/>
      <point x="276" y="783" type="line"/>
    </contour>
  </outline>
</glyph>
<glyph name="ruble" format="2">
  <advance width="547"/>
  <unicode hex="20BD"/>
  <outline>
    <contour>
      <point x="0" y="126" type="line"/>
      <point x="72" y="126" type="line"/>
      <point x="72" y="0" type="line"/>
      <point x="156" y="0" type="line"/>
      <point x="156" y="126" type="line"/>
      <point x="328" y="126" type="line"/>
      <point x="328" y="191" type="line"/>
      <point x="156" y="191" type="line"/>
      <point x="156" y="288" type="line"/>
      <point x="315" y="288" type="line" smooth="yes"/>
      <point x="442" y="288"/>
      <point x="520" y="368"/>
      <point x="520" y="486" type="curve" smooth="yes"/>
      <point x="520" y="605"/>
      <point x="450" y="686"/>
      <point x="315" y="686" type="curve" smooth="yes"/>
      <point x="72" y="686" type="line"/>
      <point x="72" y="358" type="line"/>
      <point x="0" y="358" type="line"/>
      <point x="0" y="288" type="line"/>
      <point x="72" y="288" type="line"/>
      <point x="72" y="191" type="line"/>
      <point x="0" y="191" type="line"/>
    </contour>
    <contour>
      <point x="156" y="358" type="line"/>
      <point x="156" y="611" type="line"/>
      <point x="312" y="611" type="line" smooth="yes"/>
      <point x="390" y="611"/>
      <point x="433" y="560"/>
      <point x="433" y="486" type="curve" smooth="yes"/>
      <point x="433" y="412"/>
      <point x="385" y="358"/>
      <point x="312" y="358" type="curve" smooth="yes"/>
    </contour>
  </outline>
</glyph>
<glyph name="emptyset" format="2">
  <advance width="456"/>
  <unicode hex="2205"/>
  <outline>
    <contour>
      <point x="227" y="102" type="curve" smooth="yes"/>
      <point x="352" y="102"/>
      <point x="435" y="202"/>
      <point x="435" y="351" type="curve" smooth="yes"/>
      <point x="435" y="499"/>
      <point x="351" y="598"/>
      <point x="226" y="598" type="curve" smooth="yes"/>
      <point x="102" y="598"/>
      <point x="20" y="499"/>
      <point x="20" y="351" type="curve" smooth="yes"/>
      <point x="20" y="202"/>
      <point x="103" y="102"/>
    </contour>
    <contour>
      <point x="227" y="178" type="curve" smooth="yes"/>
      <point x="149" y="178"/>
      <point x="98" y="247"/>
      <point x="99" y="351" type="curve" smooth="yes"/>
      <point x="100" y="454"/>
      <point x="152" y="522"/>
      <point x="227" y="522" type="curve" smooth="yes"/>
      <point x="306" y="522"/>
      <point x="358" y="453"/>
      <point x="357" y="350" type="curve" smooth="yes"/>
      <point x="356" y="247"/>
      <point x="303" y="178"/>
    </contour>
    <contour>
      <point x="56" y="99" type="line"/>
      <point x="447" y="562" type="line"/>
      <point x="400" y="603" type="line"/>
      <point x="9" y="140" type="line"/>
    </contour>
  </outline>
</glyph>
<glyph name="lozenge" format="2">
  <advance width="494"/>
  <unicode hex="25CA"/>
  <outline>
    <contour>
      <point x="214" y="0" type="line"/>
      <point x="268" y="0" type="line"/>
      <point x="470" y="342" type="line"/>
      <point x="268" y="686" type="line"/>
      <point x="214" y="686" type="line"/>
      <point x="24" y="342" type="line"/>
    </contour>
    <contour>
      <point x="248" y="103" type="line"/>
      <point x="112" y="351" type="line"/>
      <point x="238" y="582" type="line"/>
      <point x="380" y="333" type="line"/>
    </contour>
  </outline>
</glyph>
<glyph name="leftanglebracket-math" format="2">
  <advance width="273"/>
  <unicode hex="27E8"/>
  <outline>
    <contour>
      <point x="172" y="-157" type="line"/>
      <point x="233" y="-157" type="line"/>
      <point x="131" y="296" type="line"/>
      <point x="233" y="735" type="line"/>
      <point x="172" y="735" type="line"/>
      <point x="30" y="296" type="line"/>
    </contour>
  </outline>
</glyph>
<glyph name="rightanglebracket-math" format="2">
  <advance width="273"/>
  <unicode hex="27E9"/>
  <outline>
    <contour>
      <point x="40" y="-157" type="line"/>
      <point x="101" y="-157" type="line"/>
      <point x="243" y="296" type="line"/>
      <point x="101" y="735" type="line"/>
      <point x="40" y="735" type="line"/>
      <point x="142" y="296" type="line"/>
    </contour>
  </outline>
</glyph>
<glyph name="commaaccent" format="2">
  <unicode hex="F6C3"/>
  <outline>
    <contour>
      <point x="15" y="-240" type="line"/>
      <point x="56" y="-240" type="line"/>
      <point x="85" y="-172" type="line"/>
      <point x="85" y="-88" type="line"/>
      <point x="0" y="-88" type="line"/>
      <point x="0" y="-179" type="line"/>
      <point x="35" y="-179" type="line"/>
    </contour>
  </outline>
</glyph>
<glyph name="Y.loclGUA" format="2">
  <advance width="540"/>
  <anchor x="270" y="0" name="bottom"/>
  <anchor x="270" y="686" name="top"/>
  <anchor x="65" y="686" name="topleft"/>
  <outline>
    <contour>
      <point x="263" y="-12" type="curve" smooth="yes"/>
      <point x="388" y="-12"/>
      <point x="475" y="63"/>
      <point x="475" y="253" type="curve" smooth="yes"/>
      <point x="475" y="686" type="line"/>
      <point x="387" y="686" type="line"/>
      <point x="387" y="458" type="line" smooth="yes"/>
      <point x="387" y="337"/>
      <point x="335" y="274"/>
      <point x="259" y="274" type="curve" smooth="yes"/>
      <point x="189" y="274"/>
      <point x="153" y="319"/>
      <point x="153" y="388" type="curve" smooth="yes"/>
      <point x="153" y="686" type="line"/>
      <point x="65" y="686" type="line"/>
      <point x="65" y="393" type="line" smooth="yes"/>
      <point x="65" y="263"/>
      <point x="132" y="198"/>
      <point x="234" y="198" type="curve" smooth="yes"/>
      <point x="296" y="198"/>
      <point x="347" y="218"/>
      <point x="380" y="294" type="curve"/>
      <point x="387" y="294" type="line"/>
      <point x="387" y="248" type="line" smooth="yes"/>
      <point x="387" y="118"/>
      <point x="339" y="64"/>
      <point x="265" y="64" type="curve" smooth="yes"/>
      <point x="201" y="64"/>
      <point x="153" y="100"/>
      <point x="153" y="168" type="curve"/>
      <point x="65" y="168" type="line"/>
      <point x="65" y="160" type="line" smooth="yes"/>
      <point x="65" y="40"/>
      <point x="149" y="-12"/>
    </contour>
  </outline>
</glyph>
<glyph name="acute.loclPLK" format="2">
  <advance width="147"/>
  <anchor x="28" y="526" name="_top"/>
  <outline>
    <contour>
      <point x="0" y="591" type="line"/>
      <point x="69" y="591" type="line"/>
      <point x="147" y="750" type="line"/>
      <point x="146" y="753" type="line"/>
      <point x="56" y="753" type="line"/>
    </contour>
  </outline>
</glyph>
<glyph name="acutecomb.case" format="2">
  <anchor x="68" y="526" name="_top"/>
  <anchor x="68" y="686" name="top"/>
  <outline>
    <contour>
      <point x="0" y="591" type="line"/>
      <point x="79" y="591" type="line"/>
      <point x="177" y="690" type="line"/>
      <point x="176" y="693" type="line"/>
      <point x="76" y="693" type="line"/>
    </contour>
  </outline>
</glyph>
<glyph name="brevecomb.case" format="2">
  <anchor x="124" y="526" name="_top"/>
  <anchor x="124" y="640" name="top"/>
  <outline>
    <contour>
      <point x="123" y="589" type="curve" smooth="yes"/>
      <point x="200" y="589"/>
      <point x="247" y="641"/>
      <point x="247" y="686" type="curve"/>
      <point x="183" y="686" type="line"/>
      <point x="182" y="672"/>
      <point x="157" y="653"/>
      <point x="123" y="653" type="curve" smooth="yes"/>
      <point x="90" y="653"/>
      <point x="67" y="672"/>
      <point x="64" y="686" type="curve"/>
      <point x="0" y="686" type="line"/>
      <point x="0" y="641"/>
      <point x="47" y="589"/>
    </contour>
  </outline>
</glyph>
<glyph name="breveinvertedcomb.case" format="2">
  <anchor x="124" y="526" name="_top"/>
  <anchor x="124" y="723" name="top"/>
  <outline>
    <contour>
      <point x="0" y="626" type="curve"/>
      <point x="64" y="626" type="line"/>
      <point x="67" y="640"/>
      <point x="90" y="659"/>
      <point x="123" y="659" type="curve" smooth="yes"/>
      <point x="157" y="659"/>
      <point x="182" y="640"/>
      <point x="183" y="626" type="curve"/>
      <point x="247" y="626" type="line"/>
      <point x="247" y="671"/>
      <point x="200" y="723"/>
      <point x="123" y="723" type="curve" smooth="yes"/>
      <point x="47" y="723"/>
      <point x="0" y="671"/>
    </contour>
  </outline>
</glyph>
<glyph name="caroncomb.alt" format="2">
  <anchor x="0" y="526" name="_topright"/>
  <outline>
    <contour>
      <point x="0" y="546" type="line"/>
      <point x="52" y="546" type="line"/>
      <point x="100" y="723" type="line"/>
      <point x="25" y="723" type="line"/>
    </contour>
  </outline>
</glyph>
<glyph name="caroncomb.case" format="2">
  <anchor x="125" y="526" name="_top"/>
  <anchor x="125" y="693" name="top"/>
  <outline>
    <contour>
      <point x="85" y="588" type="line"/>
      <point x="163" y="588" type="line"/>
      <point x="249" y="693" type="line"/>
      <point x="169" y="693" type="line"/>
      <point x="124" y="644" type="line"/>
      <point x="80" y="693" type="line"/>
      <point x="0" y="693" type="line"/>
    </contour>
  </outline>
</glyph>
<glyph name="cedillacomb.case" format="2">
  <anchor x="86" y="0" name="_bottom"/>
  <anchor x="86" y="-182" name="bottom"/>
  <outline>
    <contour>
      <point x="84" y="-182" type="curve" smooth="yes"/>
      <point x="125" y="-182"/>
      <point x="188" y="-168"/>
      <point x="188" y="-101" type="curve" smooth="yes"/>
      <point x="188" y="-55"/>
      <point x="150" y="-39"/>
      <point x="107" y="-36" type="curve"/>
      <point x="114" y="11" type="line"/>
      <point x="59" y="11" type="line"/>
      <point x="45" y="-77" type="line"/>
      <point x="78" y="-77" type="line" smooth="yes"/>
      <point x="104" y="-77"/>
      <point x="112" y="-85"/>
      <point x="112" y="-101" type="curve" smooth="yes"/>
      <point x="112" y="-120"/>
      <point x="98" y="-125"/>
      <point x="76" y="-125" type="curve"/>
      <point x="0" y="-125" type="line"/>
      <point x="0" y="-174" type="line"/>
      <point x="24" y="-179"/>
      <point x="56" y="-182"/>
    </contour>
  </outline>
</glyph>
<glyph name="commaaccentcomb.case" format="2">
  <anchor x="44" y="0" name="_bottom"/>
  <anchor x="46" y="-182" name="bottom"/>
  <outline>
    <contour>
      <point x="19" y="-240" type="line"/>
      <point x="59" y="-240" type="line"/>
      <point x="88" y="-172" type="line"/>
      <point x="88" y="-88" type="line"/>
      <point x="0" y="-88" type="line"/>
      <point x="0" y="-179" type="line"/>
      <point x="38" y="-179" type="line"/>
    </contour>
  </outline>
</glyph>
<glyph name="dblgravecomb.case" format="2">
  <anchor x="175" y="526" name="_top"/>
  <anchor x="175" y="686" name="top"/>
  <outline>
    <contour>
      <point x="214" y="591" type="line"/>
      <point x="283" y="591" type="line"/>
      <point x="221" y="693" type="line"/>
      <point x="131" y="693" type="line"/>
      <point x="130" y="690" type="line"/>
    </contour>
    <contour>
      <point x="84" y="591" type="line"/>
      <point x="153" y="591" type="line"/>
      <point x="91" y="693" type="line"/>
      <point x="1" y="693" type="line"/>
      <point x="0" y="690" type="line"/>
    </contour>
  </outline>
</glyph>
<glyph name="dieresisbelowcomb.case" format="2">
  <anchor x="119" y="0" name="_bottom"/>
  <anchor x="119" y="-183" name="bottom"/>
  <outline>
    <contour>
      <point x="144" y="-183" type="line"/>
      <point x="237" y="-183" type="line"/>
      <point x="237" y="-88" type="line"/>
      <point x="144" y="-88" type="line"/>
    </contour>
    <contour>
      <point x="0" y="-183" type="line"/>
      <point x="92" y="-183" type="line"/>
      <point x="92" y="-88" type="line"/>
      <point x="0" y="-88" type="line"/>
    </contour>
  </outline>
</glyph>
<glyph name="dieresiscomb.case" format="2">
  <anchor x="119" y="526" name="_top"/>
  <anchor x="119" y="723" name="top"/>
  <outline>
    <contour>
      <point x="150" y="628" type="line"/>
      <point x="237" y="628" type="line"/>
      <point x="237" y="723" type="line"/>
      <point x="150" y="723" type="line"/>
    </contour>
    <contour>
      <point x="0" y="628" type="line"/>
      <point x="87" y="628" type="line"/>
      <point x="87" y="723" type="line"/>
      <point x="0" y="723" type="line"/>
    </contour>
  </outline>
</glyph>
<glyph name="dotaccentcomb.case" format="2">
  <anchor x="45" y="526" name="_top"/>
  <anchor x="45" y="723" name="top"/>
  <outline>
    <contour>
      <point x="0" y="628" type="line"/>
      <point x="88" y="628" type="line"/>
      <point x="88" y="723" type="line"/>
      <point x="0" y="723" type="line"/>
    </contour>
  </outline>
</glyph>
<glyph name="dotbelowcomb.case" format="2">
  <anchor x="49" y="0" name="_bottom"/>
  <anchor x="49" y="-182" name="bottom"/>
  <outline>
    <contour>
      <point x="0" y="-182" type="line"/>
      <point x="97" y="-182" type="line"/>
      <point x="97" y="-88" type="line"/>
      <point x="0" y="-88" type="line"/>
    </contour>
  </outline>
</glyph>
<glyph name="eight.osf" format="2">
  <advance width="456"/>
  <outline>
    <contour>
      <point x="228" y="-10" type="curve" smooth="yes"/>
      <point x="349" y="-10"/>
      <point x="400" y="68"/>
      <point x="400" y="164" type="curve" smooth="yes"/>
      <point x="400" y="229"/>
      <point x="376" y="279"/>
      <point x="320" y="306" type="curve"/>
      <point x="365" y="335"/>
      <point x="387" y="386"/>
      <point x="387" y="441" type="curve" smooth="yes"/>
      <point x="387" y="532"/>
      <point x="333" y="607"/>
      <point x="228" y="607" type="curve" smooth="yes"/>
      <point x="123" y="607"/>
      <point x="70" y="532"/>
      <point x="70" y="441" type="curve" smooth="yes"/>
      <point x="70" y="385"/>
      <point x="92" y="335"/>
      <point x="136" y="306" type="curve"/>
      <point x="82" y="280"/>
      <point x="57" y="230"/>
      <point x="57" y="164" type="curve" smooth="yes"/>
      <point x="57" y="69"/>
      <point x="107" y="-10"/>
    </contour>
    <contour>
      <point x="228" y="61" type="curve" smooth="yes"/>
      <point x="172" y="61"/>
      <point x="141" y="100"/>
      <point x="141" y="165" type="curve" smooth="yes"/>
      <point x="141" y="231"/>
      <point x="172" y="270"/>
      <point x="228" y="270" type="curve" smooth="yes"/>
      <point x="285" y="270"/>
      <point x="315" y="230"/>
      <point x="315" y="165" type="curve" smooth="yes"/>
      <point x="315" y="100"/>
      <point x="285" y="61"/>
    </contour>
    <contour>
      <point x="228" y="340" type="curve" smooth="yes"/>
      <point x="182" y="340"/>
      <point x="152" y="376"/>
      <point x="152" y="438" type="curve" smooth="yes"/>
      <point x="152" y="500"/>
      <point x="182" y="536"/>
      <point x="228" y="536" type="curve" smooth="yes"/>
      <point x="275" y="536"/>
      <point x="306" y="500"/>
      <point x="306" y="438" type="curve" smooth="yes"/>
      <point x="306" y="377"/>
      <point x="275" y="340"/>
    </contour>
  </outline>
</glyph>
<glyph name="five.osf" format="2">
  <advance width="456"/>
  <outline>
    <contour>
      <point x="232" y="-10" type="curve" smooth="yes"/>
      <point x="339" y="-10"/>
      <point x="406" y="63"/>
      <point x="406" y="195" type="curve" smooth="yes"/>
      <point x="406" y="325"/>
      <point x="341" y="388"/>
      <point x="259" y="388" type="curve" smooth="yes"/>
      <point x="210" y="388"/>
      <point x="176" y="366"/>
      <point x="155" y="347" type="curve"/>
      <point x="166" y="516" type="line"/>
      <point x="380" y="516" type="line"/>
      <point x="380" y="597" type="line"/>
      <point x="95" y="597" type="line"/>
      <point x="74" y="266" type="line"/>
      <point x="153" y="254" type="line"/>
      <point x="169" y="291"/>
      <point x="201" y="317"/>
      <point x="238" y="317" type="curve" smooth="yes"/>
      <point x="287" y="317"/>
      <point x="321" y="272"/>
      <point x="321" y="195" type="curve" smooth="yes"/>
      <point x="321" y="104"/>
      <point x="283" y="60"/>
      <point x="232" y="60" type="curve" smooth="yes"/>
      <point x="180" y="60"/>
      <point x="142" y="110"/>
      <point x="142" y="185" type="curve"/>
      <point x="57" y="185" type="line"/>
      <point x="57" y="64"/>
      <point x="126" y="-10"/>
    </contour>
  </outline>
</glyph>
<glyph name="four.osf" format="2">
  <advance width="456"/>
  <outline>
    <contour>
      <point x="273" y="0" type="line"/>
      <point x="355" y="0" type="line"/>
      <point x="355" y="143" type="line"/>
      <point x="418" y="143" type="line"/>
      <point x="418" y="214" type="line"/>
      <point x="355" y="214" type="line"/>
      <point x="355" y="519" type="line"/>
      <point x="316" y="519" type="line"/>
      <point x="304" y="472"/>
      <point x="292" y="428"/>
      <point x="273" y="385" type="curve"/>
      <point x="273" y="214" type="line"/>
      <point x="113" y="214" type="line"/>
      <point x="147" y="262"/>
      <point x="245" y="448"/>
      <point x="280" y="607" type="curve"/>
      <point x="197" y="607" type="line"/>
      <point x="161" y="473"/>
      <point x="103" y="329"/>
      <point x="38" y="214" type="curve"/>
      <point x="38" y="143" type="line"/>
      <point x="273" y="143" type="line"/>
    </contour>
  </outline>
</glyph>
<glyph name="gravecomb.case" format="2">
  <anchor x="124" y="526" name="_top"/>
  <anchor x="124" y="686" name="top"/>
  <outline>
    <contour>
      <point x="108" y="591" type="line"/>
      <point x="177" y="591" type="line"/>
      <point x="91" y="693" type="line"/>
      <point x="1" y="693" type="line"/>
      <point x="0" y="690" type="line"/>
    </contour>
  </outline>
</glyph>
<glyph name="hookabovecomb.case" format="2">
  <anchor x="68" y="526" name="_top"/>
  <anchor x="67" y="713" name="top"/>
  <outline>
    <contour>
      <point x="39" y="586" type="line"/>
      <point x="95" y="586" type="line"/>
      <point x="95" y="609" type="line"/>
      <point x="120" y="612"/>
      <point x="143" y="629"/>
      <point x="143" y="665" type="curve" smooth="yes"/>
      <point x="143" y="714"/>
      <point x="97" y="725"/>
      <point x="62" y="725" type="curve" smooth="yes"/>
      <point x="44" y="725"/>
      <point x="18" y="722"/>
      <point x="0" y="717" type="curve"/>
      <point x="0" y="678" type="line"/>
      <point x="50" y="678" type="line" smooth="yes"/>
      <point x="70" y="678"/>
      <point x="81" y="674"/>
      <point x="81" y="660" type="curve" smooth="yes"/>
      <point x="81" y="648"/>
      <point x="73" y="642"/>
      <point x="52" y="642" type="curve" smooth="yes"/>
      <point x="39" y="642" type="line"/>
    </contour>
  </outline>
</glyph>
<glyph name="horncomb.case" format="2">
  <anchor x="0" y="526" name="_topright"/>
  <anchor x="0" y="640" name="topright"/>
  <outline>
    <contour>
      <point x="0" y="471" type="line"/>
      <point x="75" y="471" type="line" smooth="yes"/>
      <point x="139" y="471"/>
      <point x="180" y="513"/>
      <point x="180" y="579" type="curve" smooth="yes"/>
      <point x="180" y="650" type="line"/>
      <point x="105" y="650" type="line"/>
      <point x="105" y="579" type="line" smooth="yes"/>
      <point x="105" y="543"/>
      <point x="92" y="526"/>
      <point x="55" y="526" type="curve" smooth="yes"/>
      <point x="0" y="526" type="line"/>
    </contour>
  </outline>
</glyph>
<glyph name="hungarumlautcomb.case" format="2">
  <anchor x="96" y="526" name="_top"/>
  <anchor x="96" y="686" name="top"/>
  <outline>
    <contour>
      <point x="130" y="591" type="line"/>
      <point x="199" y="591" type="line"/>
      <point x="283" y="690" type="line"/>
      <point x="282" y="693" type="line"/>
      <point x="192" y="693" type="line"/>
    </contour>
    <contour>
      <point x="0" y="591" type="line"/>
      <point x="69" y="591" type="line"/>
      <point x="153" y="690" type="line"/>
      <point x="152" y="693" type="line"/>
      <point x="62" y="693" type="line"/>
    </contour>
  </outline>
</glyph>
<glyph name="macronbelowcomb.case" format="2">
  <anchor x="125" y="0" name="_bottom"/>
  <anchor x="125" y="-183" name="bottom"/>
  <outline>
    <contour>
      <point x="0" y="-160" type="line"/>
      <point x="249" y="-160" type="line"/>
      <point x="249" y="-88" type="line"/>
      <point x="0" y="-88" type="line"/>
    </contour>
  </outline>
</glyph>
<glyph name="nine.osf" format="2">
  <advance width="456"/>
  <outline>
    <contour>
      <point x="225" y="-10" type="curve" smooth="yes"/>
      <point x="333" y="-10"/>
      <point x="397" y="68"/>
      <point x="397" y="316" type="curve" smooth="yes"/>
      <point x="397" y="537"/>
      <point x="329" y="607"/>
      <point x="217" y="607" type="curve" smooth="yes"/>
      <point x="123" y="607"/>
      <point x="54" y="533"/>
      <point x="54" y="414" type="curve" smooth="yes"/>
      <point x="54" y="306"/>
      <point x="104" y="222"/>
      <point x="207" y="222" type="curve" smooth="yes"/>
      <point x="251" y="222"/>
      <point x="287" y="242"/>
      <point x="312" y="275" type="curve"/>
      <point x="311" y="144"/>
      <point x="296" y="61"/>
      <point x="229" y="61" type="curve" smooth="yes"/>
      <point x="177" y="61"/>
      <point x="154" y="107"/>
      <point x="154" y="184" type="curve"/>
      <point x="70" y="184" type="line"/>
      <point x="70" y="73"/>
      <point x="116" y="-10"/>
    </contour>
    <contour>
      <point x="222" y="292" type="curve" smooth="yes"/>
      <point x="164" y="292"/>
      <point x="138" y="346"/>
      <point x="138" y="414" type="curve" smooth="yes"/>
      <point x="138" y="481"/>
      <point x="164" y="536"/>
      <point x="222" y="536" type="curve" smooth="yes"/>
      <point x="279" y="536"/>
      <point x="306" y="482"/>
      <point x="306" y="414" type="curve" smooth="yes"/>
      <point x="306" y="345"/>
      <point x="279" y="292"/>
    </contour>
  </outline>
</glyph>
<glyph name="ogonekcomb.case" format="2">
  <anchor x="128" y="0" name="_ogonek"/>
  <outline>
    <contour>
      <point x="94" y="-190" type="curve" smooth="yes"/>
      <point x="114" y="-190"/>
      <point x="134" y="-185"/>
      <point x="155" y="-176" type="curve"/>
      <point x="155" y="-125" type="line"/>
      <point x="123" y="-125" type="line" smooth="yes"/>
      <point x="90" y="-125"/>
      <point x="75" y="-108"/>
      <point x="75" y="-84" type="curve" smooth="yes"/>
      <point x="75" y="-60"/>
      <point x="94" y="-28"/>
      <point x="128" y="0" type="curve"/>
      <point x="127" y="4" type="line"/>
      <point x="68" y="4" type="line"/>
      <point x="22" y="-23"/>
      <point x="0" y="-65"/>
      <point x="0" y="-103" type="curve" smooth="yes"/>
      <point x="0" y="-150"/>
      <point x="32" y="-190"/>
    </contour>
  </outline>
</glyph>
<glyph name="one.osf" format="2">
  <advance width="456"/>
  <outline>
    <contour>
      <point x="63" y="0" type="line"/>
      <point x="423" y="0" type="line"/>
      <point x="423" y="71" type="line"/>
      <point x="290" y="71" type="line"/>
      <point x="290" y="597" type="line"/>
      <point x="255" y="597" type="line"/>
      <point x="194" y="561"/>
      <point x="107" y="537"/>
      <point x="62" y="532" type="curve"/>
      <point x="62" y="479" type="line"/>
      <point x="208" y="479" type="line"/>
      <point x="208" y="71" type="line"/>
      <point x="63" y="71" type="line"/>
    </contour>
  </outline>
</glyph>
<glyph name="periodcentered.loclCAT" format="2">
  <advance width="273"/>
  <anchor x="136" y="386" name="_center"/>
  <outline>
    <contour>
      <point x="86" y="336" type="line"/>
      <point x="186" y="336" type="line"/>
      <point x="186" y="436" type="line"/>
      <point x="86" y="436" type="line"/>
    </contour>
  </outline>
</glyph>
<glyph name="ringcomb.case" format="2">
  <anchor x="96" y="526" name="_top"/>
  <anchor x="96" y="754" name="top"/>
  <outline>
    <contour>
      <point x="96" y="562" type="curve" smooth="yes"/>
      <point x="149" y="562"/>
      <point x="192" y="605"/>
      <point x="192" y="659" type="curve" smooth="yes"/>
      <point x="192" y="710"/>
      <point x="150" y="754"/>
      <point x="96" y="754" type="curve" smooth="yes"/>
      <point x="43" y="754"/>
      <point x="0" y="712"/>
      <point x="0" y="659" type="curve" smooth="yes"/>
      <point x="0" y="604"/>
      <point x="44" y="562"/>
    </contour>
    <contour>
      <point x="96" y="612" type="curve" smooth="yes"/>
      <point x="71" y="612"/>
      <point x="50" y="634"/>
      <point x="50" y="659" type="curve" smooth="yes"/>
      <point x="50" y="684"/>
      <point x="71" y="704"/>
      <point x="96" y="704" type="curve" smooth="yes"/>
      <point x="120" y="704"/>
      <point x="142" y="684"/>
      <point x="142" y="659" type="curve" smooth="yes"/>
      <point x="142" y="634"/>
      <point x="120" y="612"/>
    </contour>
  </outline>
</glyph>
<glyph name="seven.osf" format="2">
  <advance width="456"/>
  <outline>
    <contour>
      <point x="127" y="0" type="curve"/>
      <point x="220" y="0" type="line"/>
      <point x="219" y="21"/>
      <point x="219" y="28"/>
      <point x="219" y="44" type="curve" smooth="yes"/>
      <point x="219" y="235"/>
      <point x="324" y="421"/>
      <point x="407" y="543" type="curve"/>
      <point x="407" y="597" type="line"/>
      <point x="52" y="597" type="line"/>
      <point x="52" y="516" type="line"/>
      <point x="309" y="516" type="line"/>
      <point x="224" y="391"/>
      <point x="127" y="199"/>
    </contour>
  </outline>
</glyph>
<glyph name="six.osf" format="2">
  <advance width="456"/>
  <outline>
    <contour>
      <point x="236" y="-10" type="curve" smooth="yes"/>
      <point x="330" y="-10"/>
      <point x="400" y="63"/>
      <point x="400" y="183" type="curve" smooth="yes"/>
      <point x="400" y="291"/>
      <point x="350" y="375"/>
      <point x="247" y="375" type="curve" smooth="yes"/>
      <point x="204" y="375"/>
      <point x="166" y="355"/>
      <point x="141" y="322" type="curve"/>
      <point x="142" y="453"/>
      <point x="158" y="536"/>
      <point x="227" y="536" type="curve" smooth="yes"/>
      <point x="277" y="536"/>
      <point x="300" y="491"/>
      <point x="300" y="413" type="curve"/>
      <point x="384" y="413" type="line"/>
      <point x="384" y="524"/>
      <point x="338" y="607"/>
      <point x="231" y="607" type="curve" smooth="yes"/>
      <point x="122" y="607"/>
      <point x="57" y="530"/>
      <point x="57" y="281" type="curve" smooth="yes"/>
      <point x="57" y="60"/>
      <point x="125" y="-10"/>
    </contour>
    <contour>
      <point x="232" y="61" type="curve" smooth="yes"/>
      <point x="175" y="61"/>
      <point x="148" y="115"/>
      <point x="148" y="183" type="curve" smooth="yes"/>
      <point x="148" y="252"/>
      <point x="175" y="305"/>
      <point x="232" y="305" type="curve" smooth="yes"/>
      <point x="289" y="305"/>
      <point x="315" y="252"/>
      <point x="315" y="183" type="curve" smooth="yes"/>
      <point x="315" y="115"/>
      <point x="289" y="61"/>
    </contour>
  </outline>
</glyph>
<glyph name="three.osf" format="2">
  <advance width="456"/>
  <outline>
    <contour>
      <point x="227" y="-10" type="curve" smooth="yes"/>
      <point x="327" y="-10"/>
      <point x="398" y="54"/>
      <point x="398" y="160" type="curve" smooth="yes"/>
      <point x="398" y="242"/>
      <point x="357" y="288"/>
      <point x="307" y="306" type="curve"/>
      <point x="307" y="310" type="line"/>
      <point x="353" y="335"/>
      <point x="387" y="373"/>
      <point x="387" y="444" type="curve" smooth="yes"/>
      <point x="387" y="550"/>
      <point x="321" y="607"/>
      <point x="224" y="607" type="curve" smooth="yes"/>
      <point x="130" y="607"/>
      <point x="62" y="543"/>
      <point x="62" y="444" type="curve" smooth="yes"/>
      <point x="62" y="425" type="line"/>
      <point x="146" y="425" type="line"/>
      <point x="146" y="436" type="line" smooth="yes"/>
      <point x="146" y="504"/>
      <point x="179" y="536"/>
      <point x="225" y="536" type="curve" smooth="yes"/>
      <point x="268" y="536"/>
      <point x="303" y="507"/>
      <point x="303" y="439" type="curve" smooth="yes"/>
      <point x="303" y="372"/>
      <point x="265" y="339"/>
      <point x="221" y="339" type="curve" smooth="yes"/>
      <point x="173" y="339" type="line"/>
      <point x="173" y="268" type="line"/>
      <point x="219" y="268" type="line" smooth="yes"/>
      <point x="268" y="268"/>
      <point x="314" y="246"/>
      <point x="314" y="165" type="curve" smooth="yes"/>
      <point x="314" y="93"/>
      <point x="276" y="61"/>
      <point x="222" y="61" type="curve" smooth="yes"/>
      <point x="166" y="61"/>
      <point x="135" y="98"/>
      <point x="135" y="166" type="curve" smooth="yes"/>
      <point x="135" y="179" type="line"/>
      <point x="51" y="179" type="line"/>
      <point x="51" y="169" type="line" smooth="yes"/>
      <point x="51" y="60"/>
      <point x="114" y="-10"/>
    </contour>
  </outline>
</glyph>
<glyph name="tildecomb.case" format="2">
  <anchor x="132" y="526" name="_top"/>
  <anchor x="132" y="686" name="top"/>
  <outline>
    <contour>
      <point x="0" y="594" type="curve"/>
      <point x="52" y="594" type="line"/>
      <point x="55" y="615"/>
      <point x="67" y="622"/>
      <point x="83" y="622" type="curve" smooth="yes"/>
      <point x="118" y="622"/>
      <point x="148" y="594"/>
      <point x="187" y="594" type="curve" smooth="yes"/>
      <point x="242" y="594"/>
      <point x="264" y="646"/>
      <point x="264" y="688" type="curve"/>
      <point x="212" y="688" type="line"/>
      <point x="209" y="667"/>
      <point x="197" y="660"/>
      <point x="181" y="660" type="curve" smooth="yes"/>
      <point x="146" y="660"/>
      <point x="116" y="688"/>
      <point x="77" y="688" type="curve" smooth="yes"/>
      <point x="22" y="688"/>
      <point x="0" y="636"/>
    </contour>
  </outline>
</glyph>
<glyph name="two.osf" format="2">
  <advance width="456"/>
  <outline>
    <contour>
      <point x="57" y="0" type="line"/>
      <point x="397" y="0" type="line"/>
      <point x="397" y="81" type="line"/>
      <point x="158" y="81" type="line"/>
      <point x="161" y="88"/>
      <point x="168" y="100"/>
      <point x="175" y="110" type="curve" smooth="yes"/>
      <point x="241" y="205"/>
      <point x="394" y="306"/>
      <point x="394" y="452" type="curve" smooth="yes"/>
      <point x="394" y="562"/>
      <point x="321" y="607"/>
      <point x="232" y="607" type="curve" smooth="yes"/>
      <point x="142" y="607"/>
      <point x="62" y="554"/>
      <point x="62" y="426" type="curve" smooth="yes"/>
      <point x="62" y="406"/>
      <point x="65" y="392"/>
      <point x="65" y="392" type="curve"/>
      <point x="150" y="392" type="line"/>
      <point x="150" y="427" type="line" smooth="yes"/>
      <point x="150" y="484"/>
      <point x="171" y="534"/>
      <point x="230" y="534" type="curve" smooth="yes"/>
      <point x="291" y="534"/>
      <point x="308" y="489"/>
      <point x="308" y="453" type="curve" smooth="yes"/>
      <point x="308" y="336"/>
      <point x="179" y="255"/>
      <point x="106" y="156" type="curve" smooth="yes"/>
      <point x="78" y="118"/>
      <point x="57" y="70"/>
      <point x="57" y="14" type="curve" smooth="yes"/>
    </contour>
  </outline>
</glyph>
<glyph name="y.loclGUA" format="2">
  <advance width="456"/>
  <anchor x="228" y="0" name="bottom"/>
  <anchor x="228" y="526" name="top"/>
  <outline>
    <contour>
      <point x="229" y="-182" type="curve" smooth="yes"/>
      <point x="333" y="-182"/>
      <point x="396" y="-97"/>
      <point x="396" y="53" type="curve" smooth="yes"/>
      <point x="396" y="526" type="line"/>
      <point x="314" y="526" type="line"/>
      <point x="314" y="225" type="line" smooth="yes"/>
      <point x="314" y="134"/>
      <point x="268" y="81"/>
      <point x="216" y="81" type="curve" smooth="yes"/>
      <point x="172" y="81"/>
      <point x="142" y="100"/>
      <point x="142" y="173" type="curve" smooth="yes"/>
      <point x="142" y="526" type="line"/>
      <point x="60" y="526" type="line"/>
      <point x="60" y="167" type="line" smooth="yes"/>
      <point x="60" y="50"/>
      <point x="111" y="8"/>
      <point x="190" y="8" type="curve" smooth="yes"/>
      <point x="242" y="8"/>
      <point x="288" y="29"/>
      <point x="317" y="81" type="curve"/>
      <point x="323" y="81" type="line"/>
      <point x="323" y="54" type="line" smooth="yes"/>
      <point x="323" y="-48"/>
      <point x="288" y="-110"/>
      <point x="231" y="-110" type="curve" smooth="yes"/>
      <point x="174" y="-110"/>
      <point x="139" y="-78"/>
      <point x="139" y="-25" type="curve"/>
      <point x="60" y="-25" type="line"/>
      <point x="60" y="-35" type="line" smooth="yes"/>
      <point x="60" y="-126"/>
      <point x="124" y="-182"/>
    </contour>
  </outline>
</glyph>
<glyph name="zero.osf" format="2">
  <advance width="456"/>
  <outline>
    <contour>
      <point x="228" y="-10" type="curve" smooth="yes"/>
      <point x="335" y="-10"/>
      <point x="400" y="56"/>
      <point x="400" y="298" type="curve" smooth="yes"/>
      <point x="400" y="541"/>
      <point x="335" y="607"/>
      <point x="228" y="607" type="curve" smooth="yes"/>
      <point x="121" y="607"/>
      <point x="57" y="541"/>
      <point x="57" y="298" type="curve" smooth="yes"/>
      <point x="57" y="56"/>
      <point x="121" y="-10"/>
    </contour>
    <contour>
      <point x="228" y="61" type="curve" smooth="yes"/>
      <point x="155" y="61"/>
      <point x="141" y="154"/>
      <point x="141" y="268" type="curve" smooth="yes"/>
      <point x="141" y="329" type="line" smooth="yes"/>
      <point x="141" y="443"/>
      <point x="155" y="536"/>
      <point x="228" y="536" type="curve" smooth="yes"/>
      <point x="306" y="536"/>
      <point x="315" y="430"/>
      <point x="315" y="329" type="curve" smooth="yes"/>
      <point x="315" y="268" type="line"/>
      <point x="315" y="143"/>
      <point x="298" y="61"/>
    </contour>
  </outline>
</glyph>
<glyph name="zero.osf.zero" format="2">
  <advance width="456"/>
  <outline>
    <contour>
      <point x="149" y="39" type="line"/>
      <point x="193" y="39" type="line"/>
      <point x="307" y="559" type="line"/>
      <point x="263" y="559" type="line"/>
    </contour>
    <component base="zero.tosf"/>
  </outline>
</glyph>
<glyph name="zero.zero" format="2">
  <advance width="456"/>
  <outline>
    <contour>
      <point x="126" y="66" type="line"/>
      <point x="175" y="66" type="line"/>
      <point x="330" y="642" type="line"/>
      <point x="281" y="642" type="line"/>
    </contour>
    <component base="zero"/>
  </outline>
</glyph>
